<svg width="18" height="12" viewBox="0 0 18 12" fill="none" xmlns="http://www.w3.org/2000/svg">
<path d="M5.25781 10.7266L0.691406 6.1875C0.563802 6.0599 0.5 5.89583 0.5 5.69531C0.5 5.49479 0.563802 5.33073 0.691406 5.20312L1.70312 4.21875C1.83073 4.07292 1.99023 4 2.18164 4C2.37305 4 2.54167 4.07292 2.6875 4.21875L5.75 7.28125L12.3125 0.71875C12.4583 0.572917 12.627 0.5 12.8184 0.5C13.0098 0.5 13.1693 0.572917 13.2969 0.71875L14.3086 1.70312C14.4362 1.83073 14.5 1.99479 14.5 2.19531C14.5 2.39583 14.4362 2.5599 14.3086 2.6875L6.24219 10.7266C6.11458 10.8724 5.95052 10.9453 5.75 10.9453C5.54948 10.9453 5.38542 10.8724 5.25781 10.7266V10.7266" fill="#FCD200"/>
<path d="M5.25781 10.7266L0.691406 6.1875C0.563802 6.0599 0.5 5.89583 0.5 5.69531C0.5 5.49479 0.563802 5.33073 0.691406 5.20312L1.70312 4.21875C1.83073 4.07292 1.99023 4 2.18164 4C2.37305 4 2.54167 4.07292 2.6875 4.21875L5.75 7.28125L12.3125 0.71875C12.4583 0.572917 12.627 0.5 12.8184 0.5C13.0098 0.5 13.1693 0.572917 13.2969 0.71875L14.3086 1.70312C14.4362 1.83073 14.5 1.99479 14.5 2.19531C14.5 2.39583 14.4362 2.5599 14.3086 2.6875L6.24219 10.7266C6.11458 10.8724 5.95052 10.9453 5.75 10.9453C5.54948 10.9453 5.38542 10.8724 5.25781 10.7266V10.7266" stroke="black" stroke-linejoin="bevel"/>
</svg>
