<svg width="80" height="80" viewBox="0 0 80 80" fill="none" xmlns="http://www.w3.org/2000/svg">
<g clip-path="url(#clip0_500_5165)">
<path d="M69.668 0H10.3319C8.07467 0.00232774 5.9106 0.900032 4.31451 2.49612C2.71842 4.09221 1.82069 6.25631 1.81836 8.51353V58.3865C1.82069 60.6437 2.71842 62.8078 4.31451 64.4039C5.9106 65.9999 8.07467 66.8977 10.3319 66.9H30.6106L24.83 77.3515H18.4304C18.0788 77.3515 17.7414 77.4912 17.4927 77.7399C17.2441 77.9885 17.1044 78.3258 17.1044 78.6775C17.1044 79.0292 17.2441 79.3665 17.4927 79.6152C17.7414 79.8638 18.0788 80.0035 18.4304 80.0035H61.5626C61.9142 80.0035 62.2515 79.8638 62.5002 79.6152C62.7488 79.3665 62.8885 79.0292 62.8885 78.6775C62.8885 78.3258 62.7488 77.9885 62.5002 77.7399C62.2515 77.4912 61.9142 77.3515 61.5626 77.3515H55.1681L49.3875 66.9H69.6645C71.9218 66.8977 74.0858 65.9999 75.6819 64.4039C77.278 62.8078 78.1757 60.6437 78.1781 58.3865V8.51353C78.1757 6.25692 77.2784 4.09337 75.6831 2.49738C74.0878 0.901393 71.9246 0.00325844 69.668 0ZM46.3662 66.8982L52.1486 77.3497H27.8514L33.6337 66.8982H46.3662ZM4.4563 54.2818V8.51353C4.45816 6.95813 5.07689 5.46697 6.17672 4.36713C7.27655 3.2673 8.76769 2.64861 10.3231 2.64674H69.668C71.2235 2.64814 72.715 3.26669 73.8149 4.36662C74.9148 5.46656 75.5334 6.95799 75.5348 8.51353V54.2818H4.4563ZM69.6715 64.2497H10.3284C8.77275 64.2479 7.28132 63.6289 6.18144 62.5287C5.08156 61.4285 4.46306 59.9369 4.46167 58.3812V56.9338H75.5419V58.3829C75.54 59.9389 74.9208 61.4307 73.8203 62.5306C72.7197 63.6305 71.2275 64.2488 69.6715 64.2497Z" fill="#212222"/>
<path d="M53.5028 17.138C53.2546 16.9073 52.927 16.7814 52.5883 16.7863C52.3335 16.7903 52.0858 16.8701 51.8766 17.0155C51.6674 17.161 51.5063 17.3654 51.4139 17.6028C51.3214 17.8402 51.3017 18.0998 51.3574 18.3484C51.4131 18.597 51.5416 18.8234 51.7265 18.9986L61.6136 28.4671L51.7265 37.939C51.5423 38.1164 51.4149 38.3446 51.3607 38.5946C51.3066 38.8446 51.328 39.105 51.4222 39.3428C51.5165 39.5806 51.6795 39.785 51.8902 39.9299C52.101 40.0748 52.3501 40.1538 52.6059 40.1567C52.9394 40.1618 53.2616 40.0355 53.5028 39.8049L64.357 29.4026C64.4832 29.2833 64.5837 29.1395 64.6524 28.98C64.7211 28.8205 64.7565 28.6486 64.7565 28.475C64.7565 28.3013 64.7211 28.1294 64.6524 27.9699C64.5837 27.8104 64.4832 27.6666 64.357 27.5473L53.5028 17.138Z" fill="#7D44E4"/>
<path d="M28.6691 18.0999C28.6722 17.9294 28.6412 17.7601 28.5778 17.6018C28.5143 17.4435 28.4198 17.2996 28.2999 17.1784L28.2699 17.1485C28.0294 16.9198 27.712 16.7893 27.3801 16.7827C27.0527 16.7827 26.7379 16.9087 26.5008 17.1345L15.6553 27.5367C15.5287 27.6558 15.4277 27.7995 15.3588 27.9591C15.2898 28.1186 15.2542 28.2906 15.2542 28.4644C15.2542 28.6382 15.2898 28.8102 15.3588 28.9697C15.4277 29.1293 15.5287 29.273 15.6553 29.3921L26.499 39.7926C26.7503 40.0217 27.077 40.1506 27.417 40.1549C27.6704 40.1471 27.9158 40.0649 28.1228 39.9185C28.3297 39.7721 28.489 39.568 28.5807 39.3317C28.6724 39.0954 28.6925 38.8373 28.6385 38.5896C28.5845 38.342 28.4588 38.1157 28.277 37.939L18.39 28.4671L28.277 19.0003C28.3986 18.8836 28.4958 18.7439 28.5631 18.5894C28.6304 18.4348 28.6664 18.2685 28.6691 18.0999Z" fill="#7D44E4"/>
<path d="M43.0284 16.8215C42.8645 16.7813 42.6944 16.7739 42.5277 16.7997C42.3609 16.8255 42.201 16.8839 42.0569 16.9717C41.9128 17.0594 41.7874 17.1747 41.688 17.311C41.5885 17.4472 41.5168 17.6018 41.4772 17.7658L36.3632 38.5669C36.3216 38.7307 36.3129 38.9011 36.3378 39.0683C36.3627 39.2354 36.4207 39.3959 36.5082 39.5405C36.5958 39.685 36.7112 39.8107 36.8479 39.9102C36.9845 40.0096 37.1396 40.0808 37.304 40.1197C37.4094 40.1455 37.5175 40.1585 37.626 40.1584C37.8561 40.1611 38.0823 40.1003 38.2801 39.9826C38.424 39.894 38.5491 39.7779 38.6481 39.6409C38.7471 39.5039 38.8181 39.3487 38.8569 39.1842L43.9728 18.3848C44.0148 18.2213 44.0237 18.0511 43.9989 17.884C43.9742 17.717 43.9163 17.5567 43.8286 17.4124C43.7409 17.2658 43.625 17.1381 43.4877 17.0367C43.3503 16.9353 43.1942 16.8621 43.0284 16.8215Z" fill="#7D44E4"/>
</g>
<defs>
<clipPath id="clip0_500_5165">
<rect width="80" height="80" fill="white"/>
</clipPath>
</defs>
</svg>
