<svg width="80" height="80" viewBox="0 0 80 80" fill="none" xmlns="http://www.w3.org/2000/svg">
<g clip-path="url(#clip0_500_5146)">
<path d="M62.917 68.2276C60.172 66.5024 57.9148 64.1026 56.3605 61.2573C53.7102 56.17 54.5377 51.4379 55.4141 46.4337C56.2905 41.4296 57.1897 36.2869 53.9936 31.2599C52.4382 28.9837 50.3809 27.095 47.9803 25.7394C45.5797 24.3838 42.8999 23.5974 40.1475 23.4409H39.7288C35.8617 23.4453 32.0977 24.6887 28.989 26.9888C26.4913 28.8707 24.4967 31.3399 23.1818 34.1774C22.2501 35.9241 21.2166 37.6146 20.0868 39.2402C17.257 43.1984 13.7732 46.6452 9.78515 49.4327C9.49483 49.6359 9.29719 49.9462 9.23563 50.2952C9.17408 50.6442 9.25368 51.0034 9.45695 51.2937C9.66022 51.5841 9.97053 51.7818 10.3196 51.8433C10.6686 51.9049 11.0277 51.8253 11.3181 51.622C15.5548 48.6591 19.256 44.9965 22.2631 40.791C23.452 39.0889 24.5398 37.3185 25.521 35.4887C26.6495 32.9867 28.3853 30.8062 30.5707 29.1455C33.1952 27.1895 36.3775 26.1259 39.6506 26.1108C39.7809 26.1108 39.9129 26.1108 40.0448 26.1108C42.3731 26.2409 44.6403 26.9043 46.6714 28.0499C48.7024 29.1955 50.443 30.7926 51.7587 32.7179C54.3797 36.8408 53.6043 41.2732 52.7834 45.9679C51.9119 50.9541 50.923 56.6066 54.0034 62.5165C55.7786 65.7733 58.3583 68.5213 61.4967 70.4984C61.6451 70.5957 61.8115 70.6624 61.986 70.6946C62.1606 70.7269 62.3398 70.724 62.5132 70.6862C62.6866 70.6484 62.8508 70.5764 62.9961 70.4744C63.1414 70.3724 63.2649 70.2425 63.3594 70.0923C63.4539 69.942 63.5175 69.7744 63.5465 69.5993C63.5755 69.4242 63.5692 69.2451 63.5282 69.0724C63.4872 68.8997 63.4121 68.7369 63.3075 68.5935C63.2028 68.4502 63.0707 68.3291 62.9187 68.2374L62.917 68.2276Z" fill="#7D44E4"/>
<path d="M12.5985 15.2764C12.7895 15.2767 12.9783 15.2359 13.1523 15.157C13.3262 15.078 13.4812 14.9626 13.6067 14.8187C16.6557 11.2998 20.3718 8.42009 24.5404 6.34602C28.7089 4.27195 33.2472 3.04464 37.8929 2.73503C38.5885 2.69268 39.2841 2.6715 39.9699 2.6715C48.9064 2.78829 57.474 6.25333 63.9792 12.3818C64.2319 12.6302 64.5729 12.768 64.9273 12.765C65.2817 12.7619 65.6203 12.6182 65.8688 12.3655C66.1172 12.1127 66.255 11.7717 66.2519 11.4173C66.2489 11.0629 66.1052 10.7243 65.8525 10.4759C58.8359 3.86294 49.5929 0.124444 39.952 0C39.2141 0 38.4663 0.0228052 37.7268 0.0684161C32.7295 0.401021 27.8477 1.72046 23.3633 3.9505C18.8789 6.18055 14.8808 9.27701 11.5999 13.061C11.4313 13.2543 11.3219 13.492 11.2848 13.7457C11.2477 13.9995 11.2844 14.2585 11.3906 14.492C11.4967 14.7254 11.6679 14.9234 11.8835 15.0622C12.0991 15.201 12.3501 15.2748 12.6065 15.2748L12.5985 15.2764Z" fill="#212222"/>
<path d="M9.49517 30.0623C9.6456 30.1527 9.81243 30.2125 9.98602 30.2384C10.1596 30.2642 10.3366 30.2555 10.5068 30.2129C10.677 30.1702 10.8372 30.0944 10.9781 29.9897C11.119 29.885 11.2378 29.7536 11.3278 29.6029C13.8005 25.4768 23.0205 11.9124 37.8392 10.6516C38.5689 10.5897 39.3053 10.5587 40.035 10.5587C54.1142 10.5587 63.6827 22.2139 66.2809 25.7863C66.4901 26.0725 66.8042 26.2642 67.1544 26.3191C67.5047 26.3741 67.8625 26.2879 68.1493 26.0795C68.435 25.8706 68.6262 25.5571 68.6812 25.2075C68.7361 24.8579 68.6503 24.5007 68.4425 24.2143C65.6569 20.3846 55.375 7.88721 40.0366 7.88721C39.2352 7.88721 38.4207 7.92141 37.6144 7.98983C21.5332 9.35816 11.6747 23.8282 9.03742 28.2313C8.85571 28.5354 8.80207 28.8991 8.88818 29.2426C8.9743 29.5862 9.19323 29.8815 9.49686 30.0639L9.49517 30.0623Z" fill="#212222"/>
<path d="M39.9699 15.5029C38.1592 15.5031 36.3549 15.7169 34.5943 16.1399C29.3234 17.4254 24.6179 20.4003 21.196 24.6105C20.4048 25.6618 19.6927 26.7704 19.0654 27.927C18.1258 29.6654 17.0107 31.3029 15.7373 32.8139C14.0346 34.8328 12.1058 36.6495 9.98875 38.2286C9.71102 38.4427 9.52866 38.7575 9.48099 39.1049C9.43332 39.4523 9.52413 39.8046 9.73393 40.0856C9.94372 40.3666 10.2556 40.5538 10.6023 40.6068C10.9489 40.6599 11.3026 40.5745 11.5868 40.369C13.866 38.6672 15.9428 36.71 17.7768 34.5357C19.1542 32.9026 20.3621 31.1337 21.3817 29.2563C21.9474 28.2068 22.5916 27.2015 23.3088 26.2492C26.3713 22.5375 30.5439 19.9064 35.2132 18.7429C36.7895 18.3631 38.4054 18.1718 40.0268 18.1728C44.4142 18.2232 48.6989 19.5074 52.3907 21.8787C55.1508 23.8175 57.428 26.365 59.0464 29.3243C60.6649 32.2836 61.5813 35.5754 61.7246 38.9453C61.7227 41.2967 61.3081 43.6295 60.4996 45.8375C59.3423 48.7259 59.0779 51.895 59.7405 54.9352C60.7194 58.7106 62.8211 62.1 65.7677 64.6553C66.0351 64.8877 66.3839 65.0044 66.7374 64.9796C67.0908 64.9549 67.42 64.7907 67.6524 64.5233C67.8848 64.2559 68.0016 63.9071 67.9768 63.5536C67.9521 63.2002 67.7879 62.871 67.5205 62.6386C64.9848 60.4495 63.1743 57.5414 62.3289 54.2999C61.798 51.7299 62.047 49.0599 63.0441 46.6324C63.9367 44.1426 64.3919 41.5171 64.3896 38.872C64.2291 35.0842 63.2004 31.384 61.3829 28.0569C59.5654 24.7297 57.0077 21.8647 53.9072 19.6829C49.7443 17.0101 44.9133 15.5627 39.9666 15.5062L39.9699 15.5029Z" fill="#212222"/>
<path d="M48.7386 37.1584L48.6978 37.0802C47.8003 35.4837 46.4938 34.1549 44.9127 33.2305C43.3315 32.306 41.5326 31.8193 39.701 31.8203C39.3048 31.8203 38.9089 31.8426 38.5152 31.8871C34.0014 32.4898 31.3722 36.5769 29.0525 40.1818C28.6828 40.7568 28.313 41.3318 27.9384 41.8922C22.9094 49.153 16.4601 55.3186 8.98052 60.016C8.68393 60.2104 8.4767 60.5147 8.40445 60.8619C8.3322 61.2091 8.40083 61.5708 8.59525 61.8673C8.78966 62.1639 9.09386 62.3711 9.44105 62.4434C9.78824 62.5156 10.1499 62.447 10.4465 62.2526C18.2249 57.3573 24.9302 50.9358 30.157 43.3762C30.5415 42.8012 30.9209 42.2131 31.2972 41.6267C33.498 38.2058 35.5765 34.9724 38.8393 34.5358C39.1281 34.5027 39.4185 34.4858 39.7092 34.4853C41.0544 34.4868 42.3755 34.8431 43.539 35.5184C44.7025 36.1937 45.6672 37.164 46.3358 38.3313C46.3472 38.3508 46.3586 38.372 46.3684 38.3932C47.0493 39.8315 47.4321 42.2212 44.3273 47.9699C39.6034 56.7206 31.3998 65.1587 19.9287 73.0559C19.6366 73.2568 19.4364 73.5655 19.3719 73.914C19.3075 74.2626 19.3841 74.6225 19.585 74.9145C19.7859 75.2066 20.0946 75.4069 20.4432 75.4713C20.7918 75.5358 21.1517 75.4591 21.4437 75.2582C33.2667 67.1216 41.7585 58.3708 46.6796 49.2453C49.6101 43.8144 50.2258 40.2013 48.7386 37.1584Z" fill="#7D44E4"/>
<path d="M41.2649 42.371C41.3604 42.2238 41.426 42.0593 41.458 41.8868C41.4899 41.7142 41.4875 41.5371 41.451 41.3655C41.4145 41.1939 41.3444 41.0312 41.245 40.8866C41.1456 40.742 41.0187 40.6185 40.8716 40.5229C40.7244 40.4274 40.5598 40.3618 40.3873 40.3299C40.2147 40.298 40.0376 40.3004 39.866 40.3369C39.6944 40.3734 39.5316 40.4434 39.3871 40.5428C39.2425 40.6422 39.119 40.7692 39.0235 40.9163C31.973 51.7932 22.7583 61.1016 11.9534 68.2617C11.8073 68.3589 11.6816 68.4838 11.5838 68.6294C11.486 68.7751 11.4178 68.9386 11.3832 69.1106C11.3485 69.2825 11.3482 69.4597 11.382 69.6318C11.4158 69.804 11.4832 69.9678 11.5803 70.1139C11.6775 70.26 11.8024 70.3855 11.948 70.4833C12.0937 70.5812 12.2571 70.6493 12.4291 70.684C12.6011 70.7186 12.7783 70.719 12.9504 70.6852C13.1226 70.6514 13.2863 70.584 13.4324 70.4869C24.5409 63.124 34.0149 53.5535 41.2649 42.371Z" fill="#7D44E4"/>
<path d="M68.5858 29.8164C68.5222 29.6464 68.4245 29.4912 68.2988 29.3602C68.1731 29.2292 68.0221 29.1252 67.8549 29.0545C67.6877 28.9839 67.5078 28.9481 67.3262 28.9492C67.1447 28.9504 66.9654 28.9886 66.7991 29.0614C66.6328 29.1343 66.4831 29.2402 66.3591 29.3728C66.2352 29.5055 66.1395 29.6619 66.0781 29.8328C66.0166 30.0036 65.9907 30.1851 66.0017 30.3663C66.0128 30.5475 66.0606 30.7245 66.1424 30.8866C69.4948 38.5483 69.8643 47.186 67.1784 55.106C67.1222 55.2722 67.0994 55.4479 67.1111 55.6229C67.1228 55.798 67.169 55.969 67.2468 56.1263C67.3246 56.2835 67.4326 56.4239 67.5647 56.5394C67.6967 56.6548 67.8503 56.7432 68.0165 56.7993C68.1828 56.8555 68.3584 56.8784 68.5335 56.8666C68.7085 56.8549 68.8795 56.8088 69.0367 56.731C69.194 56.6532 69.3344 56.5451 69.4498 56.4131C69.5653 56.281 69.6537 56.1274 69.7098 55.9612C72.6077 47.4109 72.2068 38.0865 68.5858 29.8164Z" fill="#212222"/>
<path d="M53.184 74.2888C51.7429 73.5175 50.4692 72.4681 49.4366 71.2011C48.404 69.9342 47.6329 68.4749 47.1682 66.9079C46.4894 64.3343 46.6772 61.6087 47.7025 59.1524C47.7724 58.9904 47.8094 58.8161 47.8115 58.6397C47.8136 58.4632 47.7807 58.2881 47.7148 58.1245C47.6488 57.9608 47.551 57.8118 47.4271 57.6862C47.3033 57.5605 47.1557 57.4606 46.993 57.3923C46.8304 57.324 46.6558 57.2885 46.4793 57.2881C46.3029 57.2876 46.128 57.3221 45.965 57.3896C45.802 57.4571 45.6539 57.5562 45.5294 57.6813C45.4049 57.8063 45.3064 57.9547 45.2396 58.1181C43.9835 61.1292 43.7545 64.4703 44.588 67.6247C45.153 69.5382 46.0918 71.3207 47.35 72.8691C48.6082 74.4176 50.1609 75.7012 51.9183 76.6459C52.2309 76.8131 52.5971 76.8492 52.9363 76.7465C53.2756 76.6437 53.56 76.4103 53.7272 76.0977C53.8944 75.7852 53.9307 75.419 53.8279 75.0797C53.7251 74.7405 53.4917 74.456 53.1791 74.2888H53.184Z" fill="#212222"/>
<path d="M37.9402 69.8404C37.7242 69.8112 37.5065 69.7965 37.2886 69.7964C35.3093 70.043 33.4355 70.8272 31.8707 72.0639L31.685 72.1779C30.0772 73.1806 28.5929 74.3686 27.2624 75.7177C27.026 75.9726 26.8982 76.3095 26.906 76.6571C26.9139 77.0047 27.0567 77.3355 27.3043 77.5795C27.5519 77.8235 27.8848 77.9615 28.2325 77.9643C28.5801 77.967 28.9152 77.8343 29.1666 77.5942C30.3486 76.3943 31.6679 75.3379 33.0973 74.4471L33.2814 74.333C34.4552 73.3913 35.8425 72.7524 37.3212 72.4728C37.411 72.4727 37.5008 72.4781 37.5899 72.4891C39.359 72.7236 41.1004 75.3707 41.8253 78.93C41.8872 79.2306 42.0503 79.5009 42.2875 79.6956C42.5247 79.8904 42.8216 79.9979 43.1285 80.0002C43.2193 79.9998 43.3099 79.9906 43.3989 79.9725C43.7456 79.9011 44.0498 79.6953 44.2452 79.4001C44.4406 79.1049 44.5111 78.7444 44.4414 78.3973C43.4493 73.5169 40.9587 70.2378 37.9402 69.8404Z" fill="#212222"/>
</g>
<defs>
<clipPath id="clip0_500_5146">
<rect width="80" height="80" fill="white"/>
</clipPath>
</defs>
</svg>
