<svg width="80" height="80" viewBox="0 0 80 80" fill="none" xmlns="http://www.w3.org/2000/svg">
<g clip-path="url(#clip0_500_5191)">
<path d="M68.6689 14.9934C68.6689 12.4029 65.3531 10.3435 58.8162 8.87118C58.6686 8.83567 58.5155 8.82987 58.3657 8.8541C58.2158 8.87833 58.0723 8.93211 57.9435 9.01233C57.8146 9.09254 57.703 9.1976 57.6151 9.32135C57.5272 9.4451 57.4648 9.58508 57.4316 9.73317C57.3983 9.88126 57.3948 10.0345 57.4213 10.1839C57.4479 10.3334 57.5038 10.4761 57.586 10.6037C57.6682 10.7313 57.7749 10.8413 57.9 10.9273C58.025 11.0132 58.166 11.0735 58.3146 11.1045C64.6946 12.5411 66.3796 14.2759 66.3796 14.9872C66.3695 15.1933 66.2993 15.392 66.1777 15.5587L65.5177 16.2187C62.7393 18.3169 53.3867 20.6217 40.0023 20.6217C26.9022 20.6217 17.6584 18.4132 14.6672 16.3523L13.7943 15.4795C13.785 15.4702 13.7711 15.4671 13.7617 15.4577C13.6766 15.3168 13.6291 15.1564 13.6235 14.9918C13.6235 14.2634 15.3474 12.5069 21.8733 11.0626C22.02 11.0295 22.1587 10.9679 22.2815 10.8813C22.4043 10.7946 22.509 10.6847 22.5893 10.5576C22.6696 10.4305 22.7241 10.2889 22.7497 10.1408C22.7753 9.99268 22.7715 9.84095 22.7384 9.69431C22.7054 9.54767 22.6438 9.40897 22.5572 9.28613C22.4705 9.1633 22.3605 9.05874 22.2335 8.97842C22.1064 8.89809 21.9648 8.84357 21.8167 8.81798C21.6685 8.79239 21.5168 8.79622 21.3702 8.82926C14.7044 10.3031 11.3265 12.3765 11.3265 14.9934C11.3424 15.7614 11.6333 16.4982 12.1465 17.0698C12.1558 17.0807 12.1589 17.0947 12.1698 17.104L12.2615 17.1956C12.3953 17.3457 12.5373 17.4883 12.687 17.6227L33.9485 38.8842V44.8946C33.9485 45.1981 34.0691 45.4893 34.2837 45.7039C34.4984 45.9186 34.7895 46.0392 35.0931 46.0392C35.3966 46.0392 35.6878 45.9186 35.9024 45.7039C36.1171 45.4893 36.2377 45.1981 36.2377 44.8946V37.9368L18.7983 20.4975C32.7666 23.7294 47.2891 23.723 61.2545 20.4788L43.7965 37.9368V44.8946C43.7965 45.1983 43.9171 45.4897 44.1319 45.7045C44.3467 45.9193 44.6381 46.04 44.9418 46.04C45.2456 46.04 45.5369 45.9193 45.7517 45.7045C45.9665 45.4897 46.0872 45.1983 46.0872 44.8946V38.8842L67.8675 17.104C67.9842 16.9842 68.0728 16.8399 68.1268 16.6816C68.4705 16.1848 68.6591 15.5973 68.6689 14.9934Z" fill="#212222"/>
<path d="M35.0916 16.138C36.0108 16.1377 36.9094 15.8648 37.6736 15.3538C38.4378 14.8429 39.0334 14.1168 39.385 13.2674C39.7365 12.418 39.8283 11.4834 39.6488 10.5818C39.4692 9.68026 39.0264 8.85214 38.3763 8.20221C37.7261 7.55229 36.8979 7.10974 35.9963 6.93051C35.0946 6.75128 34.1601 6.84342 33.3108 7.19529C32.4615 7.54716 31.7356 8.14294 31.2249 8.90732C30.7142 9.6717 30.4417 10.5704 30.4417 11.4896C30.4445 12.7218 30.9354 13.9027 31.8068 14.7739C32.6783 15.645 33.8594 16.1355 35.0916 16.138ZM32.7325 11.4896C32.7328 11.0231 32.8714 10.5672 33.1308 10.1794C33.3902 9.79165 33.7587 9.48952 34.1898 9.31121C34.6209 9.13289 35.0952 9.0864 35.5527 9.1776C36.0102 9.2688 36.4305 9.49361 36.7603 9.8236C37.09 10.1536 37.3145 10.5739 37.4054 11.0315C37.4963 11.4891 37.4495 11.9633 37.2709 12.3943C37.0923 12.8253 36.79 13.1937 36.4021 13.4528C36.0141 13.712 35.5581 13.8503 35.0916 13.8503C34.4669 13.8474 33.8689 13.5973 33.4283 13.1546C32.9876 12.7119 32.7402 12.1127 32.7402 11.4881L32.7325 11.4896Z" fill="#212222"/>
<path d="M51.8615 9.35738C52.7812 9.35738 53.6803 9.08462 54.445 8.57362C55.2097 8.06261 55.8057 7.33631 56.1576 6.48656C56.5095 5.63682 56.6015 4.7018 56.4219 3.79977C56.2424 2.89773 55.7994 2.06921 55.149 1.41898C54.4985 0.768743 53.6698 0.326021 52.7677 0.14678C51.8656 -0.0324617 50.9306 0.05983 50.081 0.412007C49.2314 0.764183 48.5053 1.36042 47.9946 2.12529C47.4838 2.89017 47.2114 3.78933 47.2117 4.70905C47.2145 5.94125 47.7054 7.12212 48.5769 7.99328C49.4483 8.86443 50.6293 9.35492 51.8615 9.35738ZM49.5024 4.70905C49.5024 4.24247 49.6407 3.78635 49.9 3.39839C50.1592 3.01044 50.5276 2.70807 50.9587 2.52951C51.3898 2.35095 51.8642 2.30423 52.3218 2.39526C52.7794 2.48629 53.1997 2.71098 53.5296 3.04091C53.8596 3.37084 54.0843 3.79119 54.1753 4.24882C54.2664 4.70644 54.2196 5.18078 54.041 5.61185C53.8625 6.04292 53.5601 6.41136 53.1722 6.67058C52.7842 6.9298 52.3281 7.06816 51.8615 7.06816C51.2361 7.06734 50.6365 6.81851 50.1943 6.37627C49.752 5.93403 49.5032 5.33448 49.5024 4.70905Z" fill="#7D44E4"/>
<path d="M41.6361 6.55073C41.9599 6.55073 42.2764 6.4547 42.5456 6.27484C42.8148 6.09497 43.0246 5.83933 43.1485 5.54022C43.2724 5.24111 43.3048 4.91197 43.2416 4.59444C43.1785 4.27691 43.0226 3.98522 42.7936 3.75629C42.5647 3.52736 42.273 3.37147 41.9555 3.30831C41.6379 3.24515 41.3089 3.27757 41.0097 3.40146C40.7106 3.52536 40.455 3.73517 40.2751 4.00436C40.0952 4.27356 39.9993 4.59004 39.9993 4.91379C39.9997 5.34781 40.1722 5.76393 40.4791 6.07082C40.786 6.37772 41.2021 6.55032 41.6361 6.55073Z" fill="#212222"/>
<path d="M34.9114 3.27241C35.2351 3.27211 35.5514 3.17584 35.8204 2.99579C36.0894 2.81573 36.299 2.55996 36.4226 2.26082C36.5463 1.96168 36.5785 1.63261 36.5151 1.31518C36.4518 0.997747 36.2958 0.706207 36.0668 0.477433C35.8378 0.24866 35.5461 0.0929101 35.2286 0.0298745C34.9111 -0.0331611 34.5821 -0.000649349 34.2831 0.123292C33.9841 0.247233 33.7284 0.457032 33.5486 0.72619C33.3688 0.995349 33.2729 1.31179 33.2729 1.63548C33.2729 1.85057 33.3153 2.06356 33.3976 2.26227C33.48 2.46097 33.6007 2.64148 33.7529 2.7935C33.9051 2.94552 34.0857 3.06606 34.2845 3.14824C34.4833 3.23041 34.6963 3.27262 34.9114 3.27241Z" fill="#7D44E4"/>
<path d="M24.8677 6.54925C25.7718 6.54925 26.5046 5.81638 26.5046 4.91232C26.5046 4.00827 25.7718 3.27539 24.8677 3.27539C23.9637 3.27539 23.2308 4.00827 23.2308 4.91232C23.2308 5.81638 23.9637 6.54925 24.8677 6.54925Z" fill="#212222"/>
<path d="M24.8677 16.6303C25.1913 16.63 25.5077 16.5338 25.7767 16.3537C26.0457 16.1736 26.2553 15.9179 26.3789 15.6187C26.5026 15.3196 26.5348 14.9905 26.4714 14.6731C26.4081 14.3557 26.2521 14.0641 26.0231 13.8353C25.7941 13.6066 25.5024 13.4508 25.1849 13.3878C24.8674 13.3247 24.5384 13.3573 24.2394 13.4812C23.9404 13.6051 23.6847 13.8149 23.5049 14.0841C23.3251 14.3533 23.2292 14.6697 23.2292 14.9934C23.2292 15.2085 23.2716 15.4215 23.3539 15.6202C23.4363 15.8189 23.557 15.9994 23.7092 16.1514C23.8614 16.3034 24.042 16.424 24.2408 16.5061C24.4396 16.5883 24.6526 16.6305 24.8677 16.6303Z" fill="#7D44E4"/>
<path d="M45.1306 13.1249C45.4544 13.1249 45.7708 13.0289 46.04 12.8491C46.3092 12.6692 46.519 12.4136 46.6429 12.1144C46.7668 11.8153 46.7992 11.4862 46.736 11.1687C46.6728 10.8511 46.5169 10.5594 46.288 10.3305C46.0591 10.1016 45.7674 9.94569 45.4499 9.88253C45.1323 9.81937 44.8032 9.85179 44.5041 9.97568C44.205 10.0996 43.9494 10.3094 43.7695 10.5786C43.5896 10.8478 43.4937 11.1643 43.4937 11.488C43.4937 11.9222 43.6661 12.3385 43.9731 12.6455C44.2801 12.9525 44.6965 13.1249 45.1306 13.1249Z" fill="#7D44E4"/>
<path d="M50.2262 14.9919C50.2262 15.3157 50.3222 15.6322 50.502 15.9013C50.6819 16.1705 50.9376 16.3803 51.2367 16.5042C51.5358 16.6281 51.8649 16.6606 52.1824 16.5974C52.4999 16.5342 52.7916 16.3783 53.0206 16.1494C53.2495 15.9205 53.4054 15.6288 53.4685 15.3113C53.5317 14.9937 53.4994 14.6646 53.3755 14.3655C53.2516 14.0664 53.0418 13.8107 52.7726 13.6308C52.5034 13.451 52.1869 13.355 51.8632 13.355C51.429 13.355 51.0126 13.5275 50.7057 13.8344C50.3987 14.1414 50.2262 14.5578 50.2262 14.9919Z" fill="#212222"/>
<path d="M39.9993 47.3032C36.7661 47.3029 33.6054 48.2613 30.9169 50.0573C28.2284 51.8533 26.1329 54.4061 24.8953 57.3931C23.6576 60.38 23.3335 63.6668 23.9639 66.838C24.5942 70.0091 26.1507 72.9221 28.4366 75.2086C30.7225 77.4952 33.6351 79.0525 36.806 79.6838C39.977 80.315 43.2639 79.9918 46.2512 78.755C49.2384 77.5182 51.7919 75.4234 53.5886 72.7354C55.3854 70.0475 56.3446 66.8871 56.3452 63.6539C56.3411 59.3195 54.6179 55.1637 51.5534 52.0984C48.489 49.0331 44.3337 47.3086 39.9993 47.3032ZM54.0576 63.6508C54.0576 66.4313 53.2331 69.1493 51.6883 71.4612C50.1436 73.7731 47.948 75.575 45.3792 76.639C42.8104 77.7031 39.9836 77.9815 37.2566 77.439C34.5295 76.8966 32.0246 75.5577 30.0585 73.5916C28.0924 71.6255 26.7535 69.1205 26.2111 66.3934C25.6686 63.6664 25.947 60.8397 27.011 58.2709C28.0751 55.7021 29.8769 53.5064 32.1888 51.9617C34.5007 50.4169 37.2188 49.5924 39.9993 49.5924C43.7271 49.5966 47.3009 51.0794 49.9366 53.7157C52.5722 56.3519 54.0544 59.9261 54.0576 63.6539V63.6508Z" fill="#212222"/>
<path d="M44.1257 62.9909C43.6258 62.6848 43.0852 62.4511 42.5198 62.2967C41.9317 62.1331 41.3416 61.9877 40.7494 61.8603V56.8423C41.0495 56.8832 41.3452 56.9513 41.633 57.0458C41.9032 57.1359 42.1476 57.226 42.366 57.316C42.5835 57.4061 42.7807 57.4838 42.9547 57.5443C43.0952 57.6008 43.2459 57.6272 43.3973 57.622C43.5434 57.6138 43.6832 57.5594 43.7964 57.4667C43.9177 57.3562 44.0173 57.224 44.09 57.0769L44.7112 55.9198C44.188 55.5029 43.614 55.1543 43.0028 54.8824C42.2862 54.5691 41.5194 54.386 40.7385 54.3419L40.7292 51.9673L39.6342 52.0605C39.5286 52.0656 39.4253 52.093 39.3311 52.1409C39.2369 52.1888 39.1539 52.2562 39.0876 52.3385C38.9623 52.4897 38.8931 52.6795 38.8918 52.8758V54.4025C38.0875 54.4949 37.3069 54.7339 36.5887 55.1076C35.9719 55.4316 35.4193 55.8652 34.958 56.3873C34.5456 56.8595 34.2321 57.4095 34.036 58.0049C33.84 58.6003 33.7653 59.229 33.8164 59.8537C33.8521 60.5629 34.052 61.254 34.4004 61.8727C34.7014 62.375 35.1084 62.8054 35.5932 63.1338C36.0785 63.4575 36.6107 63.7047 37.1711 63.8669C37.7467 64.0356 38.3265 64.1759 38.9105 64.2878L38.9244 69.7048C38.5133 69.6733 38.1093 69.5807 37.7255 69.4299C37.3823 69.2902 37.0747 69.1488 36.8045 69.006C36.5343 68.8631 36.2921 68.7388 36.0824 68.6317C35.9055 68.5323 35.7042 68.4844 35.5015 68.4935C35.3509 68.507 35.2066 68.5606 35.0838 68.6488C34.9622 68.7322 34.8616 68.8428 34.7902 68.9718L33.9919 70.4099C34.6574 70.9522 35.4113 71.3756 36.2206 71.6617C37.0925 71.9785 38.0072 72.1618 38.9338 72.2053V74.7989L40.0209 74.7057C40.1258 74.6994 40.2282 74.6709 40.3214 74.6222C40.4145 74.5735 40.4963 74.5056 40.5614 74.4231C40.6884 74.2756 40.7564 74.0865 40.7524 73.8919V72.109C41.5748 72 42.3703 71.741 43.0992 71.3449C43.7368 70.9959 44.3014 70.5277 44.7625 69.9658C45.1995 69.4279 45.5219 68.8064 45.7098 68.1394C45.9046 67.4465 45.9704 66.7237 45.9039 66.007C45.8719 65.3511 45.6713 64.7146 45.3215 64.1588C45.0105 63.689 44.6028 63.2908 44.1257 62.9909ZM38.0439 61.1164C37.7897 61.0069 37.551 60.8643 37.3341 60.6924C37.1344 60.5326 36.9658 60.3373 36.8371 60.1162C36.7032 59.8745 36.6247 59.6061 36.6073 59.3304C36.5829 59.0692 36.6077 58.8059 36.6802 58.5538C36.7551 58.2992 36.8862 58.0646 37.0639 57.8674C37.2708 57.6401 37.5177 57.4527 37.7922 57.3145C38.1459 57.1373 38.5222 57.0092 38.9105 56.934L38.9183 61.4379C38.6215 61.3488 38.3305 61.2414 38.0469 61.1164H38.0439ZM42.6254 68.5711C42.1422 69.1191 41.4833 69.4815 40.7618 69.5961L40.754 64.6636C41.058 64.7438 41.3576 64.8397 41.6517 64.9509C41.913 65.049 42.1593 65.1833 42.3832 65.35C42.5892 65.5036 42.7623 65.6969 42.8925 65.9185C43.0264 66.1601 43.105 66.4286 43.1224 66.7043C43.2085 67.367 43.0294 68.0369 42.6239 68.568L42.6254 68.5711Z" fill="#7D44E4"/>
</g>
<defs>
<clipPath id="clip0_500_5191">
<rect width="80" height="80" fill="white"/>
</clipPath>
</defs>
</svg>
