<svg width="80" height="80" viewBox="0 0 80 80" fill="none" xmlns="http://www.w3.org/2000/svg">
<path d="M70.9631 46.1852L70.6976 46.4812L70.9616 46.1761L60.6309 35.8454C60.5231 35.7338 60.3945 35.6445 60.2522 35.5828C60.1099 35.5211 59.9568 35.4881 59.8017 35.4857C59.6466 35.4833 59.4926 35.5115 59.3485 35.5688C59.2043 35.6261 59.0729 35.7112 58.9617 35.8194L41.5303 55.6173C40.5759 56.6802 39.4146 57.5371 38.1176 58.1358C36.8206 58.7345 35.4152 59.0622 33.9871 59.099C32.1194 59.1142 30.2672 58.7578 28.5384 58.0506C26.8097 57.3434 25.2388 56.2995 23.9173 54.9795C22.5885 53.6886 21.536 52.1413 20.8234 50.4312C20.1108 48.7212 19.7531 46.8842 19.7719 45.0318C19.7927 43.5797 20.1128 42.1475 20.7121 40.8246C21.3114 39.5018 22.1772 38.3168 23.2552 37.3437L43.0606 19.7383C43.2718 19.5109 43.3868 19.2105 43.3814 18.9002C43.376 18.5898 43.2507 18.2936 43.0316 18.0737L32.6918 7.73385C32.5978 7.62644 32.4819 7.54037 32.3519 7.48142C32.2219 7.42247 32.0808 7.39202 31.9381 7.39209C31.7117 7.39163 31.4922 7.46982 31.3171 7.61332L10.1369 24.0469C7.12634 26.4157 4.66523 29.4092 2.92335 32.8211C1.18147 36.2329 0.200295 39.982 0.0473379 43.8097C-0.158934 48.4265 0.624332 53.0341 2.34478 57.3234C4.06522 61.6126 6.68301 65.4844 10.0225 68.679C16.2914 74.9089 24.7107 78.4977 33.5462 78.7061C34.2374 78.7061 34.933 78.6817 35.6105 78.6329C39.3184 78.4037 42.935 77.387 46.2193 75.6507C49.5036 73.9143 52.3802 71.4982 54.6577 68.5631L71.0684 47.5843C71.1543 47.4876 71.2204 47.3748 71.2628 47.2525C71.3052 47.1302 71.3231 47.0008 71.3154 46.8715C71.3078 46.7423 71.2747 46.6159 71.2182 46.4994C71.1617 46.383 71.0828 46.2788 70.986 46.1929L70.9631 46.1852ZM27.1473 13.7071L31.8236 10.0941L40.6042 18.8762L36.1415 22.7028L27.1473 13.7071ZM17.5001 44.6229C17.4589 46.7932 17.8554 48.9496 18.6659 50.9634C19.4764 52.9771 20.6843 54.8069 22.2176 56.3435C25.1611 59.3367 29.1655 61.0497 33.3631 61.1114C33.4862 61.1114 33.6102 61.1114 33.7353 61.1114C35.4891 61.0805 37.2177 60.688 38.8128 59.9584C40.4079 59.2289 41.8353 58.1779 43.0056 56.8714L54.4273 44.0431L63.5283 53.1441L53.0679 67.2632C50.9328 70.0082 48.2309 72.2606 45.1464 73.8667C42.0618 75.4729 38.6671 76.3949 35.1939 76.5701C34.637 76.6037 34.0679 76.622 33.505 76.622C25.2806 76.4547 17.4528 73.0565 11.7145 67.1625C8.57101 64.1392 6.10643 60.4819 4.48446 56.4333C2.8625 52.3847 2.12022 48.0374 2.30688 43.68C2.47822 40.2078 3.39793 36.8137 5.00297 33.73C6.60802 30.6463 8.86052 27.9459 11.6062 25.8137L25.3866 15.0009L34.5043 24.1171L21.676 35.5372C20.3977 36.6873 19.368 38.0864 18.6499 39.6488C17.9318 41.2112 17.5405 42.9039 17.5001 44.6229ZM68.7828 46.8856L65.1684 51.5604L56.1758 42.5677L60.0023 38.1035L68.7828 46.8856Z" fill="#212222"/>
<path d="M38.967 9.11599L49.8226 10.9789H49.9325C50.1642 10.9852 50.393 10.9249 50.5915 10.8051C50.79 10.6853 50.95 10.511 51.0524 10.303C51.148 10.1053 51.1765 9.88185 51.1336 9.66651C51.0906 9.45117 50.9785 9.25574 50.8143 9.10989L45.8954 4.19095L53.2189 5.56409C53.2837 5.57227 53.3489 5.57635 53.4142 5.5763C53.6782 5.57709 53.9336 5.48239 54.1333 5.30966C54.3329 5.13693 54.4633 4.89783 54.5005 4.63646C54.5364 4.4929 54.5415 4.34337 54.5155 4.1977C54.4896 4.05202 54.4331 3.91349 54.3499 3.79117C54.2666 3.66885 54.1584 3.56552 54.0324 3.48796C53.9064 3.4104 53.7654 3.36035 53.6187 3.34111L42.8332 1.31952C42.6905 1.285 42.542 1.28074 42.3975 1.30702C42.253 1.3333 42.1156 1.38952 41.9941 1.47209C41.8573 1.56229 41.7424 1.68197 41.6578 1.82234C41.5733 1.96271 41.5212 2.12022 41.5054 2.28333C41.4896 2.44645 41.5104 2.61102 41.5665 2.76501C41.6225 2.919 41.7124 3.0585 41.8294 3.17329L46.9009 8.2448L39.2722 6.89758C39.2111 6.88867 39.1494 6.88409 39.0876 6.88386C38.8318 6.89029 38.5872 6.99052 38.4004 7.16549C38.2136 7.34046 38.0977 7.57796 38.0746 7.83285C38.022 8.135 38.0876 8.44578 38.2576 8.70099C38.3415 8.81471 38.4476 8.91016 38.5696 8.98151C38.6916 9.05286 38.8268 9.09862 38.967 9.11599Z" fill="currentColor"/>
<path d="M79.9008 29.4404C79.846 29.3292 79.7699 29.23 79.6767 29.1483C79.5835 29.0666 79.475 29.0041 79.3577 28.9644C79.2727 28.9365 79.1845 28.9196 79.0952 28.914L69.1048 27.7285H68.9919C68.7764 27.7276 68.5654 27.791 68.3861 27.9107C68.2068 28.0303 68.0673 28.2007 67.9854 28.4001C67.9035 28.5995 67.8829 28.8188 67.9263 29.0299C67.9697 29.2411 68.0752 29.4344 68.2291 29.5853L73.4729 34.8292L66.3982 34.1686C66.1089 34.1679 65.8287 34.27 65.6077 34.4567C65.3866 34.6433 65.2391 34.9024 65.1913 35.1878C65.1565 35.3297 65.1581 35.4781 65.196 35.6192C65.2339 35.7603 65.3068 35.8896 65.408 35.9949C65.6357 36.1986 65.9197 36.3284 66.2227 36.3672L76.1704 37.3787H76.288C76.5556 37.3793 76.8139 37.281 77.0136 37.1028C77.2132 36.9246 77.34 36.6789 77.3697 36.413C77.3885 36.2503 77.3697 36.0855 77.3146 35.9312C77.2596 35.777 77.1699 35.6375 77.0523 35.5235L71.8969 30.368L78.7367 31.2835H78.842C79.1042 31.2802 79.3564 31.1827 79.5526 31.0087C79.7487 30.8347 79.8755 30.5959 79.91 30.336L79.9436 30.156C80.0244 29.9212 80.0091 29.6639 79.9008 29.4404Z" fill="currentColor"/>
</svg>
