<svg width="40" height="40" viewBox="0 0 40 40" fill="none" xmlns="http://www.w3.org/2000/svg">
<path d="M15.1562 28H11.5234V16.3203H15.1562V28ZM13.3203 14.7578C12.1875 14.7578 11.25 13.7812 11.25 12.6094C11.25 11.4766 12.1875 10.5391 13.3203 10.5391C14.4922 10.5391 15.4297 11.4766 15.4297 12.6094C15.4297 13.7812 14.4922 14.7578 13.3203 14.7578ZM28.7109 28H25.1172V22.3359C25.1172 20.9688 25.0781 19.25 23.2031 19.25C21.3281 19.25 21.0547 20.6953 21.0547 22.2188V28H17.4219V16.3203H20.8984V17.9219H20.9375C21.4453 17.0234 22.6172 16.0469 24.375 16.0469C28.0469 16.0469 28.75 18.4688 28.75 21.5938V28H28.7109Z" fill="white"/>
</svg>
