<svg width="40" height="40" viewBox="0 0 40 40" fill="none" xmlns="http://www.w3.org/2000/svg">
<path d="M28.75 18.7031H28.7109C26.9141 18.7031 25.2734 18.1562 23.9453 17.1797V24.1719C23.9453 27.6875 21.0938 30.5 17.5781 30.5C14.0625 30.5 11.25 27.6875 11.25 24.1719C11.25 20.6562 14.0625 17.8047 17.5781 17.8047C17.8906 17.8047 18.1641 17.8438 18.4766 17.8828V21.3984C18.1641 21.2812 17.8906 21.2422 17.5781 21.2422C15.9766 21.2422 14.6484 22.5703 14.6484 24.1719C14.6484 25.7734 15.9766 27.1016 17.5781 27.1016C19.1797 27.1016 20.5078 25.7734 20.5078 24.1719V10.5H23.9453C23.9453 10.5391 23.9453 10.5391 23.9453 10.5781C23.9453 10.8516 23.9453 11.125 24.0234 11.3984C24.2578 12.6875 25.0391 13.8203 26.1328 14.5234C26.875 15.0312 27.7734 15.3047 28.7109 15.3047C28.7109 15.3047 28.7109 15.3047 28.75 15.3047V18.7031Z" fill="white"/>
</svg>
