<svg width="40" height="40" viewBox="0 0 40 40" fill="none" xmlns="http://www.w3.org/2000/svg">
<path d="M20 16.0078C22.4609 16.0078 24.4922 18.0391 24.4922 20.5C24.4922 23 22.4609 24.9922 20 24.9922C17.5 24.9922 15.5078 23 15.5078 20.5C15.5078 18.0391 17.5 16.0078 20 16.0078ZM20 23.4297C21.6016 23.4297 22.8906 22.1406 22.8906 20.5C22.8906 18.8984 21.6016 17.6094 20 17.6094C18.3594 17.6094 17.0703 18.8984 17.0703 20.5C17.0703 22.1406 18.3984 23.4297 20 23.4297ZM25.7031 15.8516C25.7031 16.4375 25.2344 16.9062 24.6484 16.9062C24.0625 16.9062 23.5938 16.4375 23.5938 15.8516C23.5938 15.2656 24.0625 14.7969 24.6484 14.7969C25.2344 14.7969 25.7031 15.2656 25.7031 15.8516ZM28.6719 16.9062C28.75 18.3516 28.75 22.6875 28.6719 24.1328C28.5938 25.5391 28.2812 26.75 27.2656 27.8047C26.25 28.8203 25 29.1328 23.5938 29.2109C22.1484 29.2891 17.8125 29.2891 16.3672 29.2109C14.9609 29.1328 13.75 28.8203 12.6953 27.8047C11.6797 26.75 11.3672 25.5391 11.2891 24.1328C11.2109 22.6875 11.2109 18.3516 11.2891 16.9062C11.3672 15.5 11.6797 14.25 12.6953 13.2344C13.75 12.2188 14.9609 11.9062 16.3672 11.8281C17.8125 11.75 22.1484 11.75 23.5938 11.8281C25 11.9062 26.25 12.2188 27.2656 13.2344C28.2812 14.25 28.5938 15.5 28.6719 16.9062ZM26.7969 25.6562C27.2656 24.5234 27.1484 21.7891 27.1484 20.5C27.1484 19.25 27.2656 16.5156 26.7969 15.3438C26.4844 14.6016 25.8984 13.9766 25.1562 13.7031C23.9844 13.2344 21.25 13.3516 20 13.3516C18.7109 13.3516 15.9766 13.2344 14.8438 13.7031C14.0625 14.0156 13.4766 14.6016 13.1641 15.3438C12.6953 16.5156 12.8125 19.25 12.8125 20.5C12.8125 21.7891 12.6953 24.5234 13.1641 25.6562C13.4766 26.4375 14.0625 27.0234 14.8438 27.3359C15.9766 27.8047 18.7109 27.6875 20 27.6875C21.25 27.6875 23.9844 27.8047 25.1562 27.3359C25.8984 27.0234 26.5234 26.4375 26.7969 25.6562Z" fill="white"/>
</svg>
