<svg width="14" height="14" viewBox="0 0 14 14" fill="none" xmlns="http://www.w3.org/2000/svg">
<path d="M5.90625 0H8.09375C8.27604 0 8.43099 0.0638021 8.55859 0.191406C8.6862 0.31901 8.75 0.473958 8.75 0.65625V5.25H11.1562C11.3932 5.25 11.5573 5.36393 11.6484 5.5918C11.7396 5.81966 11.7031 6.01562 11.5391 6.17969L7.38281 10.3359C7.27344 10.4453 7.14583 10.5 7 10.5C6.85417 10.5 6.72656 10.4453 6.61719 10.3359L2.46094 6.17969C2.29688 6.01562 2.26042 5.81966 2.35156 5.5918C2.44271 5.36393 2.60677 5.25 2.84375 5.25H5.25V0.65625C5.25 0.473958 5.3138 0.31901 5.44141 0.191406C5.56901 0.0638021 5.72396 0 5.90625 0ZM14 10.2812V13.3438C14 13.526 13.9362 13.681 13.8086 13.8086C13.681 13.9362 13.526 14 13.3438 14H0.65625C0.473958 14 0.31901 13.9362 0.191406 13.8086C0.0638021 13.681 0 13.526 0 13.3438V10.2812C0 10.099 0.0638021 9.94401 0.191406 9.81641C0.31901 9.6888 0.473958 9.625 0.65625 9.625H4.67578L6.01562 10.9648C6.28906 11.2383 6.61719 11.375 7 11.375C7.38281 11.375 7.71094 11.2383 7.98438 10.9648L9.32422 9.625H13.3438C13.526 9.625 13.681 9.6888 13.8086 9.81641C13.9362 9.94401 14 10.099 14 10.2812ZM10.4453 13.0703C10.5547 12.9609 10.6094 12.8333 10.6094 12.6875C10.6094 12.5417 10.5547 12.4141 10.4453 12.3047C10.3359 12.1953 10.2083 12.1406 10.0625 12.1406C9.91667 12.1406 9.78906 12.1953 9.67969 12.3047C9.57031 12.4141 9.51562 12.5417 9.51562 12.6875C9.51562 12.8333 9.57031 12.9609 9.67969 13.0703C9.78906 13.1797 9.91667 13.2344 10.0625 13.2344C10.2083 13.2344 10.3359 13.1797 10.4453 13.0703ZM12.1953 13.0703C12.3047 12.9609 12.3594 12.8333 12.3594 12.6875C12.3594 12.5417 12.3047 12.4141 12.1953 12.3047C12.0859 12.1953 11.9583 12.1406 11.8125 12.1406C11.6667 12.1406 11.5391 12.1953 11.4297 12.3047C11.3203 12.4141 11.2656 12.5417 11.2656 12.6875C11.2656 12.8333 11.3203 12.9609 11.4297 13.0703C11.5391 13.1797 11.6667 13.2344 11.8125 13.2344C11.9583 13.2344 12.0859 13.1797 12.1953 13.0703Z" fill="white"/>
</svg>
