<svg width="100" height="100" viewBox="0 0 100 100" fill="none" xmlns="http://www.w3.org/2000/svg">
<path d="M40.1144 78.8097C40.1144 73.1341 45.0015 71.0288 49.887 71.0288C54.8489 71.0288 59.8856 72.8707 59.8856 78.8097C59.8856 83.9976 56.3527 85.0433 54.0214 85.9518C50.8267 87.0427 50.1504 87.8312 50.1504 91.8534H47.5946C47.5946 86.8167 49.0985 85.0869 53.0832 83.809C55.1886 83.0579 57.2177 82.1557 57.2177 78.7724C57.2177 74.3747 53.1581 73.4739 49.8496 73.4739C46.6549 73.4739 42.7449 74.6768 42.7075 78.8112L40.1144 78.8097ZM50.9031 95.9879C50.9031 96.2298 50.8554 96.4692 50.7628 96.6927C50.6703 96.9162 50.5346 97.1194 50.3635 97.2904C50.1925 97.4615 49.9895 97.5971 49.766 97.6897C49.5425 97.7823 49.303 97.8299 49.0611 97.8299C48.8192 97.8299 48.5796 97.7823 48.3562 97.6897C48.1327 97.5971 47.9296 97.4615 47.7585 97.2904C47.5875 97.1194 47.4518 96.9162 47.3592 96.6927C47.2667 96.4692 47.219 96.2298 47.219 95.9879C47.243 95.516 47.4474 95.0713 47.79 94.7459C48.1325 94.4204 48.587 94.2391 49.0594 94.2393C49.5319 94.2395 49.9863 94.4213 50.3285 94.747C50.6708 95.0727 50.8748 95.5175 50.8984 95.9894L50.9031 95.9879Z" fill="#C0CFE6" stroke="#C0CFE6" stroke-width="1.55838"/>
<path d="M72.2499 43.2801C71.9606 43.2801 71.6831 43.1653 71.4785 42.9607C71.2739 42.7562 71.159 42.4787 71.159 42.1893C71.159 35.228 65.8418 30.3253 58.1668 30.1305L50.8018 38.2C50.6996 38.3117 50.5753 38.4009 50.4367 38.4619C50.2981 38.523 50.1483 38.5544 49.9969 38.5544C49.8455 38.5544 49.6957 38.523 49.5571 38.4619C49.4186 38.4009 49.2942 38.3117 49.192 38.2L41.8271 30.1305C34.152 30.3253 28.8364 35.228 28.8364 42.1893C28.8364 42.4787 28.7215 42.7562 28.5169 42.9607C28.3123 43.1653 28.0348 43.2801 27.7455 43.2801C27.4562 43.2801 27.1787 43.1653 26.9742 42.9607C26.7696 42.7562 26.6547 42.4787 26.6547 42.1893C26.6547 33.9299 33.2341 27.9457 42.2993 27.9457C42.4506 27.9459 42.6003 27.9775 42.7387 28.0387C42.8772 28.0999 43.0014 28.1893 43.1034 28.301L49.993 35.8498L56.8826 28.301C56.9847 28.1893 57.1089 28.0999 57.2473 28.0387C57.3858 27.9775 57.5354 27.9459 57.6868 27.9457C66.7519 27.9457 73.3329 33.9361 73.3329 42.1893C73.333 42.4773 73.2191 42.7535 73.0162 42.9579C72.8133 43.1622 72.5378 43.2781 72.2499 43.2801Z" fill="#C0CFE6" stroke="#C0CFE6" stroke-width="1.55838"/>
<path d="M49.9993 27.4344C47.499 27.4344 45.0549 26.6931 42.976 25.304C40.8971 23.9149 39.2768 21.9405 38.32 19.6305C37.3631 17.3206 37.1128 14.7788 37.6006 12.3266C38.0884 9.87432 39.2923 7.62186 41.0603 5.85389C42.8283 4.08593 45.0808 2.88192 47.533 2.39414C49.9853 1.90636 52.5271 2.15678 54.837 3.1136C57.147 4.07041 59.1213 5.69063 60.5104 7.76954C61.8995 9.84844 62.6409 12.2926 62.6409 14.7929C62.6372 18.1445 61.3041 21.3578 58.9342 23.7278C56.5642 26.0977 53.3509 27.4307 49.9993 27.4344ZM49.9993 4.32994C47.9299 4.32994 45.907 4.94352 44.1864 6.09321C42.4657 7.2429 41.1247 8.87704 40.3327 10.7889C39.5408 12.7008 39.3336 14.8045 39.7373 16.8341C40.1411 18.8637 41.1376 20.728 42.6008 22.1913C44.0641 23.6545 45.9284 24.6511 47.958 25.0548C49.9877 25.4585 52.0914 25.2513 54.0033 24.4594C55.9152 23.6675 57.5493 22.3265 58.699 20.6059C59.8486 18.8852 60.4623 16.8623 60.4623 14.7929C60.459 12.019 59.3556 9.35949 57.3941 7.39801C55.4326 5.43653 52.7732 4.33324 49.9993 4.32994Z" fill="#C0CFE6" stroke="#C0CFE6" stroke-width="1.55838"/>
<path d="M3.70117 43.2786C3.41185 43.2786 3.13438 43.1638 2.9298 42.9592C2.72522 42.7547 2.61029 42.4772 2.61029 42.1878C2.61441 38.7103 3.9977 35.3762 6.45671 32.9172C8.91572 30.4582 12.2497 29.075 15.7272 29.0709C15.8786 29.0711 16.0282 29.1028 16.1667 29.1639C16.3051 29.2251 16.4293 29.3145 16.5314 29.4263L22.888 36.3922C23.0684 36.6079 23.1586 36.8848 23.1397 37.1653C23.1209 37.4458 22.9944 37.7082 22.7868 37.8977C22.5791 38.0873 22.3063 38.1894 22.0252 38.1827C21.7442 38.176 21.4765 38.061 21.2782 37.8618L15.2535 31.2605C12.4376 31.3852 9.7782 32.5907 7.82854 34.6263C5.87887 36.6619 4.78906 39.3707 4.7858 42.1894C4.78539 42.4773 4.67113 42.7535 4.46795 42.9575C4.26476 43.1616 3.98913 43.277 3.70117 43.2786Z" fill="#C0CFE6" stroke="#C0CFE6" stroke-width="1.55838"/>
<path d="M22.087 29.029C19.9834 29.029 17.927 28.4051 16.1779 27.2364C14.4289 26.0677 13.0656 24.4066 12.2606 22.4631C11.4556 20.5196 11.245 18.3812 11.6554 16.318C12.0658 14.2549 13.0787 12.3597 14.5662 10.8722C16.0537 9.38478 17.9488 8.3717 20.012 7.96131C22.0752 7.55092 24.2137 7.76162 26.1572 8.56663C28.1007 9.37164 29.7618 10.7348 30.9305 12.4839C32.0992 14.233 32.7229 16.2893 32.7229 18.3929C32.7201 21.2129 31.5986 23.9165 29.6046 25.9105C27.6106 27.9045 24.9069 29.0261 22.087 29.029ZM22.087 9.93554C20.4143 9.93554 18.7791 10.4317 17.3883 11.361C15.9975 12.2903 14.9135 13.6111 14.2734 15.1565C13.6333 16.7019 13.4658 18.4024 13.7921 20.043C14.1185 21.6835 14.9239 23.1905 16.1067 24.3732C17.2895 25.556 18.7965 26.3615 20.437 26.6878C22.0776 27.0141 23.7781 26.8466 25.3235 26.2065C26.8689 25.5664 28.1897 24.4825 29.119 23.0916C30.0483 21.7008 30.5443 20.0656 30.5443 18.3929C30.5419 16.1506 29.65 14.0009 28.0645 12.4154C26.479 10.8299 24.3292 9.93802 22.087 9.93554Z" fill="#C0CFE6" stroke="#C0CFE6" stroke-width="1.55838"/>
<path d="M96.5045 43.2788C96.2152 43.2788 95.9378 43.1637 95.7332 42.9592C95.5286 42.7546 95.4137 42.4773 95.4137 42.188C95.4104 39.3693 94.3206 36.6603 92.3709 34.6247C90.4213 32.5891 87.7619 31.3836 84.946 31.2589L78.9213 37.8602C78.7229 38.0594 78.4553 38.1746 78.1742 38.1813C77.8932 38.188 77.6203 38.0859 77.4127 37.8963C77.2051 37.7068 77.0786 37.4442 77.0598 37.1637C77.0409 36.8832 77.131 36.6063 77.3114 36.3906L83.6697 29.4247C83.7717 29.3129 83.8959 29.2237 84.0344 29.1625C84.1728 29.1014 84.3224 29.0695 84.4738 29.0693C87.9514 29.0735 91.2853 30.4568 93.7443 32.9158C96.2033 35.3748 97.5866 38.7087 97.5907 42.1862C97.5911 42.475 97.4771 42.7523 97.2735 42.9571C97.0698 43.1619 96.7933 43.2775 96.5045 43.2788Z" fill="#C0CFE6" stroke="#C0CFE6" stroke-width="1.55838"/>
<path d="M78.1203 29.0288C76.0167 29.0288 73.9603 28.4051 72.2113 27.2364C70.4622 26.0677 69.099 24.4066 68.294 22.4631C67.4889 20.5196 67.2783 18.381 67.6887 16.3178C68.0991 14.2547 69.1121 12.3595 70.5995 10.8721C72.087 9.38459 73.9822 8.3717 76.0454 7.96131C78.1085 7.55092 80.2471 7.76162 82.1905 8.56663C84.134 9.37164 85.7951 10.7348 86.9638 12.4839C88.1325 14.233 88.7563 16.2893 88.7563 18.3929C88.753 21.2127 87.6314 23.9162 85.6375 25.9101C83.6435 27.904 80.9401 29.0255 78.1203 29.0288ZM78.1203 9.93554C76.4476 9.93554 74.8125 10.4317 73.4217 11.361C72.0309 12.2903 70.9469 13.6111 70.3068 15.1565C69.6666 16.7019 69.4991 18.4022 69.8255 20.0428C70.1518 21.6834 70.9573 23.1905 72.1401 24.3732C73.3229 25.556 74.8298 26.3615 76.4704 26.6878C78.111 27.0141 79.8114 26.8466 81.3568 26.2065C82.9022 25.5664 84.2231 24.4825 85.1524 23.0916C86.0817 21.7008 86.5777 20.0656 86.5777 18.3929C86.5752 16.1506 85.6834 14.0009 84.0979 12.4154C82.5123 10.8299 80.3626 9.93802 78.1203 9.93554Z" fill="#C0CFE6" stroke="#C0CFE6" stroke-width="1.55838"/>
<path d="M64.6184 89.7951H62.125C61.8425 89.7951 61.5716 89.6829 61.3718 89.4831C61.1721 89.2834 61.0598 89.0123 61.0598 88.7298C61.0598 88.4473 61.1721 88.1764 61.3718 87.9767C61.5716 87.7769 61.8425 87.6647 62.125 87.6647H64.0917L95.9996 45.4091H4.00504L35.913 87.6647H38.5389C38.8214 87.6647 39.0923 87.7769 39.292 87.9767C39.4918 88.1764 39.604 88.4473 39.604 88.7298C39.604 89.0123 39.4918 89.2834 39.292 89.4831C39.0923 89.6829 38.8214 89.7951 38.5389 89.7951H35.3816C35.2169 89.795 35.0544 89.7566 34.907 89.6831C34.7597 89.6095 34.6314 89.5026 34.5322 89.3711L1.01606 44.9868C0.896579 44.8288 0.823549 44.6407 0.805184 44.4435C0.786818 44.2463 0.823852 44.0478 0.912106 43.8705C1.00036 43.6932 1.13634 43.5441 1.30475 43.4398C1.47316 43.3356 1.66732 43.2803 1.86539 43.2804H98.1408C98.3389 43.2803 98.5331 43.3356 98.7015 43.4398C98.8699 43.5441 99.0059 43.6932 99.0941 43.8705C99.1824 44.0478 99.2194 44.2463 99.201 44.4435C99.1827 44.6407 99.1096 44.8288 98.9902 44.9868L65.474 89.3711C65.3742 89.5035 65.2449 89.6108 65.0964 89.6844C64.9478 89.758 64.7842 89.796 64.6184 89.7951Z" fill="white" stroke="white" stroke-width="1.55838"/>
</svg>
