<svg width="100" height="100" viewBox="0 0 100 100" fill="none" xmlns="http://www.w3.org/2000/svg">
<g clip-path="url(#clip0_500_4923)">
<path d="M33.0554 80.149C28.6962 80.178 24.3744 79.3444 20.3387 77.6962C16.3029 76.048 12.6331 73.6177 9.54035 70.5455C6.44764 67.4732 3.9932 63.8196 2.31829 59.7949C0.643376 55.7702 -0.218994 51.4539 -0.218994 47.0946C-0.218994 42.7353 0.643376 38.4191 2.31829 34.3944C3.9932 30.3697 6.44764 26.7159 9.54035 23.6436C12.6331 20.5713 16.3029 18.1412 20.3387 16.493C24.3744 14.8449 28.6962 14.0111 33.0554 14.04C40.4828 14.0128 47.6984 16.5142 53.5153 21.1328C53.9286 21.4589 54.1953 21.9358 54.2569 22.4586C54.3185 22.9814 54.1698 23.5073 53.8437 23.9206C53.6823 24.1252 53.4822 24.2959 53.2547 24.4232C53.0272 24.5504 52.7769 24.6315 52.5181 24.662C51.9953 24.7236 51.4693 24.5751 51.0561 24.249C45.9377 20.1859 39.5889 17.9859 33.054 18.0109C28.9031 18.0149 24.8011 18.9073 21.0237 20.6282C17.2463 22.3491 13.881 24.8586 11.154 27.9881C8.42694 31.1175 6.40135 34.7944 5.21325 38.7717C4.02516 42.7489 3.70209 46.9345 4.26583 51.047C4.82957 55.1595 6.26695 59.1036 8.48151 62.6144C10.6961 66.1253 13.6364 69.1214 17.105 71.4015C20.5736 73.6817 24.49 75.1929 28.5912 75.8338C32.6923 76.4748 36.8832 76.2306 40.8821 75.1174C41.1354 75.0402 41.4015 75.0143 41.6649 75.0415C41.9283 75.0687 42.1836 75.1484 42.4158 75.2757C42.6479 75.403 42.8522 75.5755 43.0167 75.7829C43.1812 75.9904 43.3026 76.2285 43.3736 76.4835C43.4447 76.7386 43.464 77.0053 43.4304 77.2679C43.3969 77.5306 43.3112 77.7839 43.1783 78.0129C43.0454 78.2419 42.8681 78.442 42.6567 78.6014C42.4453 78.7609 42.2042 78.8765 41.9475 78.9413C39.052 79.7453 36.0605 80.1515 33.0554 80.149Z" fill="white"/>
<path d="M59.4569 65.4623C59.1032 65.4617 58.7561 65.3667 58.4514 65.187C58.1468 65.0073 57.8956 64.7495 57.724 64.4402C57.5524 64.1309 57.4667 63.7814 57.4755 63.4278C57.4842 63.0743 57.5872 62.7294 57.7739 62.429C58.995 60.4655 59.9767 58.363 60.6981 56.1662C60.8727 55.6794 61.2303 55.2799 61.6949 55.0527C62.1594 54.8255 62.6943 54.7885 63.1857 54.9496C63.6771 55.1108 64.0862 55.4573 64.326 55.9155C64.5658 56.3737 64.6173 56.9074 64.4697 57.403C63.6495 59.9012 62.5332 62.2922 61.1443 64.5248C60.9662 64.8119 60.7177 65.0486 60.4224 65.2127C60.1271 65.3768 59.7947 65.4628 59.4569 65.4623Z" fill="white"/>
<path d="M63.6792 43.8165C63.211 43.816 62.7579 43.65 62.4002 43.3479C62.0425 43.0458 61.8031 42.6269 61.7243 42.1654C61.5216 40.9753 61.2445 39.799 60.8945 38.6436C60.7548 38.1437 60.8166 37.6091 61.0664 37.1542C61.3162 36.6992 61.7342 36.3601 62.231 36.2096C62.7277 36.0591 63.2636 36.109 63.724 36.3489C64.1843 36.5887 64.5324 36.9992 64.6937 37.4925C65.0917 38.8068 65.407 40.1447 65.6383 41.4983C65.6882 41.7838 65.675 42.0768 65.5995 42.3567C65.524 42.6365 65.3881 42.8963 65.2013 43.118C65.0146 43.3396 64.7814 43.5178 64.5184 43.6398C64.2555 43.7617 63.9691 43.8245 63.6792 43.8237V43.8165Z" fill="white"/>
<path d="M31.596 70.4388C31.5524 70.4388 31.5103 70.4388 31.4667 70.4388C27.8584 70.1928 24.3564 69.1137 21.2356 67.286C18.1148 65.4583 15.4603 62.9318 13.4805 59.9052C11.5008 56.8785 10.2498 53.4341 9.82587 49.8424C9.40189 46.2508 9.81638 42.6096 11.0369 39.2052C12.2575 35.8008 14.2508 32.7259 16.8602 30.2217C19.4697 27.7176 22.6243 25.8527 26.0761 24.7733C29.5279 23.694 33.183 23.4297 36.7542 24.0012C40.3253 24.5727 43.7154 25.9645 46.6579 28.0671C47.0679 28.3607 47.3444 28.8051 47.4267 29.3025C47.509 29.8 47.3904 30.3096 47.0969 30.7196C46.8033 31.1295 46.3589 31.4062 45.8615 31.4885C45.364 31.5708 44.8542 31.452 44.4442 31.1585C41.9799 29.3983 39.141 28.2334 36.1506 27.7552C33.1601 27.2771 30.0995 27.4989 27.2091 28.403C24.3188 29.3071 21.6774 30.8689 19.4924 32.9659C17.3074 35.0628 15.6385 37.6378 14.6164 40.4885C13.5943 43.3392 13.2471 46.3881 13.6019 49.3957C13.9567 52.4033 15.0039 55.2876 16.6613 57.8223C18.3188 60.3569 20.5414 62.4727 23.1544 64.0036C25.7674 65.5345 28.6995 66.4387 31.7209 66.6454C32.2125 66.6787 32.6721 66.9017 33.0026 67.2672C33.3331 67.6327 33.5087 68.1121 33.4925 68.6046C33.4763 69.0971 33.2694 69.5641 32.9157 69.907C32.5619 70.25 32.0888 70.4423 31.596 70.4432V70.4388Z" fill="white"/>
<path d="M49.4966 62.8359C49.1344 62.8359 48.7797 62.7323 48.4743 62.5375C48.1689 62.3427 47.9255 62.0648 47.7728 61.7363C47.6201 61.4078 47.5645 61.0425 47.6124 60.6835C47.6603 60.3244 47.8097 59.9866 48.0432 59.7096C49.261 58.2656 50.2636 56.653 51.0198 54.9219C51.2214 54.4594 51.5985 54.0959 52.0681 53.9114C52.5378 53.7268 53.0615 53.7364 53.524 53.938C53.9866 54.1396 54.3501 54.5167 54.5346 54.9863C54.7192 55.456 54.7096 55.9797 54.508 56.4422C53.6051 58.509 52.4081 60.4343 50.9543 62.1585C50.7757 62.3713 50.5526 62.5424 50.3007 62.6594C50.0488 62.7764 49.7744 62.8367 49.4966 62.8359Z" fill="white"/>
<path d="M54.3712 46.2627C53.9077 46.2635 53.4598 46.095 53.1119 45.7888C52.7639 45.4826 52.5398 45.0597 52.4817 44.5999C52.2838 43.0224 51.8932 41.475 51.3189 39.9925C51.136 39.5226 51.1474 38.9994 51.3503 38.5378C51.5532 38.0762 51.9311 37.714 52.401 37.5311C52.8709 37.3482 53.3942 37.3594 53.8558 37.5623C54.3174 37.7653 54.6794 38.1433 54.8623 38.6132C55.5511 40.3849 56.0203 42.2345 56.2591 44.1203C56.3225 44.6205 56.1846 45.1252 55.8757 45.5237C55.5669 45.9222 55.1125 46.1817 54.6123 46.2451C54.5323 46.2559 54.4519 46.2619 54.3712 46.2627Z" fill="white"/>
<path d="M33.0552 60.5976C30.3844 60.5976 27.7737 59.8056 25.553 58.3218C23.3323 56.838 21.6015 54.729 20.5794 52.2615C19.5573 49.794 19.29 47.0789 19.811 44.4595C20.332 41.84 21.6181 39.4338 23.5067 37.5452C25.3952 35.6567 27.8014 34.3706 30.4209 33.8496C33.0404 33.3285 35.7555 33.5959 38.2229 34.618C40.6904 35.64 42.7994 37.3709 44.2833 39.5916C45.7671 41.8123 46.559 44.423 46.559 47.0938C46.5556 50.6742 45.1318 54.1069 42.6001 56.6386C40.0684 59.1703 36.6356 60.5941 33.0552 60.5976ZM33.0552 36.9635C31.0517 36.9635 29.0932 37.5575 27.4273 38.6706C25.7614 39.7837 24.4629 41.3658 23.6961 43.2168C22.9294 45.0678 22.7288 47.1047 23.1195 49.0697C23.5103 51.0348 24.4749 52.8398 25.8915 54.2566C27.3082 55.6734 29.1131 56.6383 31.0781 57.0293C33.0431 57.4204 35.0799 57.2199 36.931 56.4534C38.7821 55.6869 40.3644 54.3887 41.4777 52.723C42.591 51.0572 43.1855 49.0988 43.1857 47.0952C43.183 44.4092 42.1149 41.834 40.2157 39.9345C38.3165 38.0351 35.7413 36.9666 33.0552 36.9635Z" fill="white"/>
<path d="M33.0552 52.152C35.8486 52.152 38.1132 49.8875 38.1132 47.0941C38.1132 44.3006 35.8486 42.0361 33.0552 42.0361C30.2618 42.0361 27.9973 44.3006 27.9973 47.0941C27.9973 49.8875 30.2618 52.152 33.0552 52.152Z" fill="white"/>
<path d="M73.5186 22.098C73.2492 22.098 72.9843 22.0289 72.7493 21.8973C72.5142 21.7657 72.3168 21.5759 72.176 21.3462C72.0353 21.1165 71.9559 20.8545 71.9454 20.5853C71.9348 20.3161 71.9937 20.0487 72.116 19.8087L75.3818 13.4049C75.4827 13.2074 75.6242 13.0335 75.797 12.8945C75.9698 12.7555 76.17 12.6546 76.3846 12.5984L83.9846 10.6013C84.2784 10.524 84.5884 10.5335 84.877 10.6285C85.1656 10.7234 85.4206 10.8998 85.6111 11.1364C85.8017 11.3731 85.9197 11.6597 85.9509 11.9619C85.9821 12.2642 85.9252 12.5691 85.787 12.8396L82.5152 19.2463C82.4144 19.4436 82.2731 19.6174 82.1005 19.7564C81.928 19.8954 81.7281 19.9965 81.5138 20.053L73.9211 22.0485C73.7896 22.0823 73.6543 22.099 73.5186 22.098ZM77.8657 15.463L76.517 18.1083L80.0299 17.1854L81.3816 14.5386L77.8657 15.463Z" fill="#C0CFE6"/>
<path d="M82.114 26.1951C82.0298 26.195 81.9458 26.1881 81.8626 26.1747L74.7612 25.0252C74.4611 24.9768 74.1815 24.8425 73.9561 24.6386C73.7306 24.4348 73.5689 24.17 73.4907 23.8763C73.4125 23.5825 73.421 23.2725 73.5152 22.9835C73.6094 22.6945 73.7851 22.439 74.0214 22.2477L80.1258 17.306C80.3418 17.131 80.6002 17.0162 80.8749 16.9735C81.1496 16.9309 81.4308 16.9619 81.6896 17.0633L88.3826 19.6794C88.6556 19.7863 88.8934 19.9673 89.0691 20.2021C89.2447 20.4368 89.3512 20.716 89.3767 21.0081C89.4022 21.3001 89.3457 21.5934 89.2135 21.8551C89.0812 22.1167 88.8786 22.3362 88.6283 22.4888L82.9309 25.9641C82.6849 26.1145 82.4023 26.1944 82.114 26.1951ZM78.7363 22.4801L81.7884 22.9744L84.2812 21.4541L81.3946 20.3248L78.7363 22.4801Z" fill="#C0CFE6"/>
<path d="M62.1121 34.2151C60.7514 34.2154 59.4304 33.7572 58.362 32.9146C57.2936 32.072 56.5403 30.894 56.2235 29.5707C55.9068 28.2475 56.0451 26.8561 56.6162 25.621C57.1872 24.386 58.1576 23.3793 59.371 22.7635C59.7672 22.5641 60.1847 22.4095 60.6152 22.3027L60.7096 22.2767L60.8143 22.2504L80.7451 16.9876C81.0934 16.8955 81.4626 16.9257 81.7914 17.0731C82.1201 17.2205 82.3883 17.4762 82.5513 17.7975C82.7142 18.1188 82.7621 18.4861 82.6868 18.8384C82.6115 19.1907 82.4176 19.5066 82.1375 19.7332L66.0292 32.7689C64.9353 33.6984 63.5476 34.2107 62.1121 34.2151ZM61.5598 25.3084C61.5191 25.3215 61.4784 25.3332 61.4377 25.3419C61.2146 25.392 60.9984 25.4691 60.7939 25.5715C60.4332 25.7313 60.1089 25.9629 59.8406 26.2521C59.5723 26.5413 59.3655 26.8819 59.2331 27.2535C59.1007 27.6251 59.0452 28.0197 59.0702 28.4134C59.0952 28.8071 59.2003 29.1916 59.3786 29.5434C59.557 29.8953 59.8051 30.2072 60.1078 30.4602C60.4105 30.7131 60.7615 30.9017 61.1395 31.0146C61.5175 31.1275 61.9145 31.1622 62.3064 31.1168C62.6982 31.0713 63.0767 30.9465 63.4188 30.7501C63.6232 30.6475 63.8145 30.5206 63.9885 30.3722L64.0162 30.3489L64.0655 30.3083L74.446 21.9074L61.5598 25.3084Z" fill="#C0CFE6"/>
<path d="M48.0663 36.8518C47.7123 36.8523 47.3684 36.7333 47.0903 36.5142C46.8122 36.2951 46.6161 35.9888 46.5336 35.6445C46.4511 35.3002 46.487 34.9382 46.6356 34.6169C46.7842 34.2956 47.0368 34.0337 47.3526 33.8737L57.4002 28.7867C57.5848 28.6907 57.7865 28.6324 57.9939 28.6149C58.2012 28.5975 58.41 28.6213 58.6081 28.685C58.8062 28.7487 58.9895 28.8512 59.1478 28.9863C59.3061 29.1213 59.4359 29.2864 59.53 29.472C59.624 29.6576 59.6803 29.86 59.6957 30.0675C59.711 30.275 59.6851 30.4834 59.6194 30.6808C59.5536 30.8782 59.4495 31.0606 59.3128 31.2175C59.1761 31.3744 59.0097 31.5026 58.8231 31.5947L48.7755 36.6817C48.5557 36.7934 48.3128 36.8518 48.0663 36.8518Z" fill="#C0CFE6"/>
<path d="M69.9345 82.4748C69.5653 82.475 69.2078 82.3452 68.9245 82.1084L62.9014 77.0738C62.6695 76.8788 62.4988 76.6209 62.4098 76.3313C62.3208 76.0416 62.3173 75.7326 62.3997 75.441C62.4821 75.1494 62.647 74.8879 62.8745 74.6877C63.1019 74.4875 63.3822 74.357 63.6819 74.3122L70.7936 73.2658C71.0131 73.2336 71.2368 73.2482 71.4502 73.3086C71.6637 73.369 71.8618 73.4736 72.0318 73.6161L78.0607 78.6566C78.2927 78.8517 78.4633 79.1097 78.5522 79.3994C78.6411 79.6892 78.6445 79.9984 78.562 80.2901C78.4794 80.5817 78.3143 80.8431 78.0866 81.0432C77.859 81.2433 77.5785 81.3736 77.2787 81.4181L70.1569 82.4587C70.0832 82.4692 70.009 82.4747 69.9345 82.4748ZM67.6164 76.9111L70.4026 79.2365L73.3428 78.8004L70.5537 76.475L67.6164 76.9111Z" fill="#C0CFE6"/>
<path d="M71.6785 89.4527C71.4651 89.4526 71.254 89.4091 71.0579 89.3248L64.9187 86.6912C64.5734 86.5433 64.2923 86.2768 64.1265 85.9398L60.9523 79.4851C60.8182 79.2125 60.7659 78.9069 60.8016 78.6052C60.8374 78.3036 60.9597 78.0187 61.1538 77.785C61.3479 77.5513 61.6055 77.3789 61.8954 77.2883C62.1854 77.1977 62.4954 77.1928 62.788 77.2744L70.3573 79.3863C70.6253 79.461 70.8689 79.6054 71.0629 79.8048C71.2569 80.0042 71.3946 80.2514 71.4619 80.5214L73.2061 87.4979C73.264 87.7299 73.2681 87.9721 73.2184 88.206C73.1686 88.4399 73.0663 88.6594 72.9191 88.8479C72.7718 89.0363 72.5837 89.1888 72.3687 89.2936C72.1538 89.3984 71.9177 89.4527 71.6785 89.4527ZM66.7021 84.03L69.385 85.1811L68.6351 82.1741L65.3372 81.254L66.7021 84.03Z" fill="#C0CFE6"/>
<path d="M69.9694 82.492C69.8259 82.4917 69.6831 82.4718 69.545 82.4326L49.5879 76.8456C49.1263 76.7293 48.6804 76.558 48.2596 76.3354C47.5563 75.9655 46.9327 75.4607 46.4245 74.8498C45.9163 74.239 45.5336 73.5341 45.2979 72.7753C45.0622 72.0164 44.9781 71.2185 45.0507 70.4273C45.1234 69.636 45.3511 68.8668 45.721 68.1636C46.0909 67.4603 46.5957 66.8367 47.2066 66.3285C47.8174 65.8204 48.5225 65.4376 49.2813 65.2019C50.0402 64.9662 50.838 64.8821 51.6293 64.9548C52.4206 65.0274 53.1898 65.2551 53.893 65.625C54.2862 65.8331 54.6547 66.0846 54.9918 66.375L55.0659 66.4346L55.1474 66.5059L70.978 79.7102C71.2266 79.9174 71.4052 80.1961 71.4897 80.5085C71.5742 80.8208 71.5604 81.1517 71.4501 81.4559C71.3399 81.7601 71.1387 82.0228 70.8737 82.2085C70.6087 82.3942 70.293 82.4938 69.9694 82.4936V82.492ZM51.0749 68.0756C50.5452 68.0756 50.0255 68.2203 49.5721 68.4941C49.1187 68.7679 48.7488 69.1605 48.5023 69.6292C48.1438 70.3112 48.0706 71.1076 48.299 71.8434C48.5273 72.5793 49.0386 73.1944 49.7203 73.5536C49.9223 73.6605 50.1365 73.7425 50.3583 73.7977L50.3989 73.8078L50.4615 73.8254L63.317 77.424L53.079 68.8837C53.047 68.859 53.0151 68.8327 52.9846 68.8051C52.8149 68.6519 52.6269 68.5202 52.425 68.4128C52.0105 68.1928 51.5485 68.077 51.0791 68.0756H51.0749Z" fill="#C0CFE6"/>
<path d="M47.1128 70.4709C46.8594 70.4701 46.6101 70.4077 46.3861 70.2892L36.417 65.0452C36.0525 64.8482 35.7804 64.5155 35.6596 64.1191C35.5389 63.7227 35.5793 63.2947 35.7721 62.9279C35.965 62.5611 36.2947 62.2852 36.6897 62.16C37.0847 62.0348 37.5132 62.0704 37.8822 62.259L47.8512 67.503C48.1631 67.6667 48.411 67.9302 48.5554 68.2514C48.6998 68.5726 48.7324 68.9329 48.6478 69.2748C48.5633 69.6166 48.3665 69.9203 48.089 70.1372C47.8115 70.354 47.4694 70.4715 47.1172 70.4709H47.1128Z" fill="#C0CFE6"/>
<path d="M92.7139 50.9498C92.6164 50.9495 92.5191 50.9402 92.4233 50.9221L84.7114 49.4541C84.4131 49.3974 84.1376 49.2555 83.9181 49.0457C83.6986 48.8359 83.5444 48.5672 83.4742 48.2718C83.404 47.9764 83.4206 47.6669 83.5223 47.3808C83.624 47.0947 83.8062 46.8441 84.0471 46.6592L89.7504 42.2844C89.927 42.1505 90.1298 42.0554 90.3457 42.0053C90.5616 41.9552 90.7857 41.9513 91.0032 41.9938L98.7224 43.4632C99.0206 43.5202 99.296 43.6621 99.5153 43.872C99.7346 44.0818 99.8886 44.3507 99.9587 44.646C100.029 44.9414 100.012 45.2507 99.91 45.5367C99.8083 45.8227 99.6259 46.0733 99.3851 46.2581L93.6746 50.6315C93.3982 50.8405 93.0604 50.9523 92.7139 50.9498ZM88.7475 47.0254L92.3158 47.7042L94.6746 45.8976L91.1034 45.2189L88.7475 47.0254Z" fill="#C0CFE6"/>
<path d="M90.9974 56.8812C90.6774 56.8808 90.3652 56.783 90.1021 56.6007L84.1868 52.5064C83.9372 52.3335 83.7428 52.0921 83.6274 51.8113C83.5119 51.5304 83.4802 51.2221 83.536 50.9236C83.5918 50.6251 83.7327 50.3492 83.9418 50.129C84.1508 49.9088 84.4191 49.7536 84.7143 49.6824L92.3536 47.844C92.6242 47.7789 92.9071 47.7866 93.1736 47.8665C93.4402 47.9464 93.6808 48.0957 93.8709 48.2989L98.7849 53.5457C98.9855 53.7598 99.1223 54.0256 99.1798 54.3133C99.2374 54.6009 99.2136 54.8988 99.1108 55.1736C99.0081 55.4483 98.8305 55.6889 98.5983 55.8682C98.3661 56.0474 98.0885 56.1582 97.7967 56.188L91.1589 56.8725C91.1051 56.8783 91.0512 56.8812 90.9974 56.8812ZM88.8712 51.9207L91.4147 53.6823L94.3216 53.3829L92.2024 51.1199L88.8712 51.9207Z" fill="#C0CFE6"/>
<path d="M71.4083 55.9394C69.8138 55.9429 68.2824 55.3169 67.147 54.1975C66.0116 53.0781 65.3639 51.5558 65.3448 49.9614C65.3256 48.3671 65.9366 46.8296 67.0448 45.6833C68.153 44.5369 69.6689 43.8745 71.263 43.8397C71.7084 43.8313 72.1533 43.8717 72.5899 43.9604L72.6786 43.9763L72.7847 43.9982L93.0411 47.8278C93.3948 47.8949 93.7148 48.0814 93.9477 48.3559C94.1806 48.6305 94.3123 48.9765 94.321 49.3364C94.3297 49.6963 94.2147 50.0482 93.9953 50.3336C93.7758 50.6191 93.4653 50.8206 93.1153 50.9048L72.9635 55.7373C72.5028 55.8604 72.0289 55.9278 71.5522 55.938L71.4083 55.9394ZM71.4083 46.9848H71.3458C70.9511 46.9736 70.5582 47.0428 70.1912 47.1883C69.8241 47.3339 69.4906 47.5528 69.2109 47.8315C68.9312 48.1102 68.7113 48.4429 68.5644 48.8094C68.4176 49.176 68.3469 49.5686 68.3568 49.9634C68.3667 50.3581 68.4569 50.7465 68.6219 51.1052C68.7869 51.464 69.0234 51.7853 69.3167 52.0497C69.61 52.314 69.9539 52.516 70.3278 52.6429C70.7017 52.7699 71.0975 52.8195 71.4911 52.7884C71.7195 52.7842 71.9464 52.7519 72.1669 52.6924L72.2063 52.6823L72.2688 52.6664L85.2522 49.553L72.151 47.075C72.1117 47.075 72.0711 47.0619 72.0319 47.0532C71.8263 47.0073 71.6161 46.9844 71.4054 46.9848H71.4083Z" fill="#C0CFE6"/>
<path d="M55.6748 51.5981C55.2573 51.6031 54.8551 51.442 54.5563 51.1503C54.2576 50.8587 54.0869 50.4603 54.0819 50.0429C54.0769 49.6254 54.2379 49.2232 54.5295 48.9244C54.8212 48.6257 55.2195 48.455 55.637 48.45L66.8982 48.1782C67.1072 48.1693 67.3159 48.2021 67.5121 48.2747C67.7082 48.3474 67.8878 48.4584 68.0406 48.6013C68.1934 48.7442 68.3161 48.9161 68.4017 49.107C68.4872 49.2979 68.534 49.5039 68.539 49.7131C68.544 49.9222 68.5072 50.1302 68.4309 50.325C68.3546 50.5197 68.2403 50.6972 68.0945 50.8473C67.9488 50.9974 67.7746 51.117 67.5821 51.1989C67.3897 51.2809 67.1829 51.3238 66.9738 51.3249L55.7126 51.5965L55.6748 51.5981Z" fill="#C0CFE6"/>
</g>
<defs>
<clipPath id="clip0_500_4923">
<rect width="100" height="100" fill="white"/>
</clipPath>
</defs>
</svg>
