<svg width="100" height="100" viewBox="0 0 100 100" fill="none" xmlns="http://www.w3.org/2000/svg">
<path d="M68.7884 99.587H40.4638C40.1041 99.587 39.7591 99.4441 39.5047 99.1897C39.2503 98.9353 39.1074 98.5902 39.1074 98.2305V72.3115H29.5249V88.5968C29.5249 88.9565 29.382 89.3016 29.1276 89.556C28.8732 89.8103 28.5282 89.9532 28.1685 89.9532H11.3842C11.0245 89.9532 10.6795 89.8103 10.4251 89.556C10.1707 89.3016 10.0278 88.9565 10.0278 88.5968V70.9551C10.0278 70.5954 10.1707 70.2503 10.4251 69.9959C10.6795 69.7415 11.0245 69.5987 11.3842 69.5987H26.8121V48.1619C26.8121 47.8022 26.955 47.4572 27.2093 47.2028C27.4637 46.9485 27.8087 46.8055 28.1685 46.8055H54.2527C54.6124 46.8055 54.9574 46.9485 55.2118 47.2028C55.4662 47.4572 55.6091 47.8022 55.6091 48.1619C55.6091 48.5217 55.4662 48.8667 55.2118 49.1211C54.9574 49.3755 54.6124 49.5183 54.2527 49.5183H29.5249V69.5987H40.4704C40.6486 69.5987 40.8249 69.6337 40.9895 69.7019C41.1541 69.77 41.3036 69.87 41.4296 69.9959C41.5555 70.1219 41.6554 70.2714 41.7236 70.436C41.7917 70.6005 41.8268 70.777 41.8268 70.9551V96.8741H67.4352V86.2838H52.0239C51.6642 86.2838 51.3192 86.1409 51.0648 85.8865C50.8104 85.6321 50.6675 85.2871 50.6675 84.9273C50.6675 84.5676 50.8104 84.2226 51.0648 83.9682C51.3192 83.7139 51.6642 83.5709 52.0239 83.5709H68.7917C69.1514 83.5709 69.4964 83.7139 69.7508 83.9682C70.0052 84.2226 70.1481 84.5676 70.1481 84.9273V98.2305C70.1481 98.4089 70.1129 98.5855 70.0445 98.7503C69.9761 98.9151 69.876 99.0648 69.7497 99.1908C69.6234 99.3168 69.4734 99.4167 69.3085 99.4846C69.1435 99.5526 68.9668 99.5874 68.7884 99.587ZM12.7341 87.242H26.8055V72.3131H12.7341V87.242Z" fill="white" stroke="white" stroke-width="0.826078"/>
<path d="M69.8656 77.5553H52.6716C52.3118 77.5553 51.9668 77.4124 51.7124 77.158C51.4581 76.9037 51.3152 76.5587 51.3152 76.1989V57.4189C51.3152 57.0591 51.4581 56.7141 51.7124 56.4597C51.9668 56.2053 52.3118 56.0625 52.6716 56.0625H54.5336C54.8933 56.0625 55.2383 56.2053 55.4927 56.4597C55.7471 56.7141 55.89 57.0591 55.89 57.4189C55.89 57.7786 55.7471 58.1236 55.4927 58.378C55.2383 58.6324 54.8933 58.7753 54.5336 58.7753H54.028V74.8491H68.5108V74.6839C68.5108 74.3242 68.6537 73.9791 68.9081 73.7247C69.1625 73.4704 69.5075 73.3274 69.8672 73.3274C70.0454 73.3274 70.2217 73.3625 70.3863 73.4307C70.5509 73.4989 70.7004 73.5988 70.8264 73.7247C70.9523 73.8507 71.0522 74.0002 71.1204 74.1648C71.1885 74.3294 71.2236 74.5058 71.2236 74.6839V76.2104C71.2206 76.5685 71.0761 76.9108 70.8217 77.1628C70.5673 77.4147 70.2236 77.5558 69.8656 77.5553Z" fill="white" stroke="white" stroke-width="0.826078"/>
<path d="M46.8543 61.6287H3.74787C3.38813 61.6287 3.04311 61.4858 2.78874 61.2314C2.53436 60.977 2.39148 60.6321 2.39148 60.2723V40.6282C2.39148 40.2684 2.53436 39.9234 2.78874 39.669C3.04311 39.4146 3.38813 39.2718 3.74787 39.2718H45.4978V30.3286C45.4978 29.9689 45.6407 29.6238 45.8951 29.3694C46.1495 29.1151 46.4945 28.9722 46.8543 28.9722H67.5277V18.2068H41.878V32.6169C41.878 32.795 41.8429 32.9713 41.7747 33.1359C41.7066 33.3005 41.6066 33.45 41.4807 33.576C41.3547 33.7019 41.2052 33.8019 41.0406 33.87C40.876 33.9382 40.6997 33.9733 40.5215 33.9733H22.1826C21.8229 33.9733 21.4778 33.8303 21.2235 33.576C20.9691 33.3216 20.8262 32.9766 20.8262 32.6169V16.8487C20.8262 16.489 20.9691 16.1439 21.2235 15.8895C21.4778 15.6351 21.8229 15.4923 22.1826 15.4923H39.1618V5.65864C39.1618 5.48051 39.1969 5.30409 39.2651 5.13952C39.3332 4.97495 39.4332 4.82551 39.5591 4.69955C39.6851 4.5736 39.8346 4.47367 39.9992 4.40551C40.1638 4.33734 40.3401 4.30225 40.5183 4.30225C40.878 4.30225 41.223 4.44518 41.4774 4.69955C41.7318 4.95393 41.8747 5.29889 41.8747 5.65864V15.4923H68.8808C69.0589 15.4923 69.2353 15.5274 69.3999 15.5956C69.5644 15.6637 69.714 15.7636 69.8399 15.8895C69.9659 16.0155 70.0658 16.165 70.134 16.3296C70.2021 16.4941 70.2372 16.6706 70.2372 16.8487V30.327C70.2372 30.5051 70.2021 30.6815 70.134 30.846C70.0658 31.0106 69.9659 31.1601 69.8399 31.2861C69.714 31.4121 69.5644 31.512 69.3999 31.5802C69.2353 31.6483 69.0589 31.6834 68.8808 31.6834H48.2074V39.2701H57.2942C57.654 39.2701 57.999 39.413 58.2534 39.6674C58.5077 39.9218 58.6506 40.2667 58.6506 40.6265C58.6506 40.9862 58.5077 41.3313 58.2534 41.5857C57.999 41.84 57.654 41.983 57.2942 41.983H48.2074V60.2723C48.2074 60.6315 48.0649 60.9759 47.8113 61.2302C47.5576 61.4845 47.2134 61.6279 46.8543 61.6287ZM5.10432 58.9158H45.4896V41.9846H5.09605L5.10432 58.9158ZM23.5423 31.2605H39.1651V18.2084H23.5423V31.2605Z" fill="white" stroke="white" stroke-width="0.826078"/>
<path d="M40.5199 10.0881C43.3056 10.0881 45.5639 7.82977 45.5639 5.04403C45.5639 2.25829 43.3056 0 40.5199 0C37.7341 0 35.4758 2.25829 35.4758 5.04403C35.4758 7.82977 37.7341 10.0881 40.5199 10.0881Z" fill="white"/>
<path d="M52.0205 89.7682C54.694 89.7682 56.8613 87.6009 56.8613 84.9274C56.8613 82.2539 54.694 80.0865 52.0205 80.0865C49.347 80.0865 47.1797 82.2539 47.1797 84.9274C47.1797 87.6009 49.347 89.7682 52.0205 89.7682Z" fill="white"/>
<path d="M95.5979 46.9626H93.7722C93.5759 46.4102 93.3503 45.8686 93.0965 45.3402L94.3125 44.1241C94.7897 43.6362 95.0571 42.981 95.0576 42.2985C95.0571 41.616 94.7897 40.9607 94.3125 40.4728L90.5935 36.7539C90.1136 36.2698 89.4611 35.9961 88.7795 35.993C88.0979 35.9899 87.443 36.2577 86.9588 36.7373L86.9439 36.7539L85.7279 37.9698C85.1995 37.7159 84.6579 37.4903 84.1055 37.2941V35.5378C84.1057 35.2007 84.0395 34.8668 83.9107 34.5553C83.7819 34.2437 83.5929 33.9605 83.3547 33.7219C83.1164 33.4834 82.8335 33.294 82.5221 33.1648C82.2107 33.0356 81.8769 32.969 81.5397 32.9688H76.2643C75.9272 32.9685 75.5933 33.0347 75.2817 33.1636C74.9701 33.2924 74.687 33.4813 74.4484 33.7196C74.2098 33.9579 74.0206 34.2407 73.8913 34.5521C73.7621 34.8635 73.6955 35.1973 73.6952 35.5345V37.2958C73.1429 37.4922 72.6013 37.7178 72.0728 37.9715L70.7875 36.7555C70.3772 36.3437 69.84 36.0825 69.2627 36.0141C68.6855 35.9457 68.1021 36.0743 67.6071 36.3788C67.434 36.4828 67.2756 36.6094 67.1362 36.7555L63.4172 40.4745C62.9397 40.9623 62.6722 41.6176 62.6721 42.3001C62.6722 42.9827 62.9397 43.638 63.4172 44.1257L64.6332 45.3418C64.3795 45.8703 64.1539 46.4118 63.9575 46.9642H62.2029C61.8656 46.964 61.5315 47.0302 61.2198 47.1591C60.9081 47.288 60.6249 47.4771 60.3863 47.7155C60.1478 47.954 59.9585 48.2372 59.8293 48.5488C59.7002 48.8604 59.6338 49.1943 59.6338 49.5316V50.8153H59.6189V53.52H59.6288V54.8053C59.6286 55.1424 59.6948 55.4764 59.8236 55.7879C59.9524 56.0995 60.1414 56.3827 60.3796 56.6213C60.6179 56.8598 60.9008 57.0491 61.2122 57.1783C61.5236 57.3075 61.8574 57.3742 62.1946 57.3744H63.9558C64.152 57.9269 64.3776 58.4684 64.6315 58.9969L63.4156 60.2805C62.939 60.7687 62.6721 61.4239 62.6721 62.1061C62.6721 62.7884 62.939 63.4437 63.4156 63.9318L67.1345 67.6508C67.2742 67.7966 67.4325 67.9233 67.6054 68.0275C68.1005 68.3321 68.6839 68.4605 69.2611 68.3922C69.8383 68.3238 70.3756 68.0626 70.7858 67.6508L72.0018 66.4348C72.5302 66.6891 73.0718 66.9153 73.6242 67.1122V68.8701C73.6242 69.5511 73.8947 70.2044 74.3761 70.6862C74.8576 71.1679 75.5106 71.4388 76.1917 71.4392H81.4687C82.1497 71.4392 82.8029 71.1687 83.2847 70.6873C83.7664 70.2058 84.0373 69.5528 84.0377 68.8718V67.1122C84.5896 66.9158 85.1306 66.6903 85.6585 66.4365L86.8761 67.6524C87.356 68.1365 88.0085 68.4102 88.6901 68.4132C89.3717 68.4163 90.0266 68.1486 90.5109 67.669L90.5258 67.6524L94.2448 63.9335C94.7214 63.4453 94.9882 62.7901 94.9882 62.1079C94.9882 61.4256 94.7214 60.7703 94.2448 60.2822L93.0288 59.0662C93.2826 58.5378 93.5082 57.9962 93.7045 57.4438H95.4624C96.1289 57.4433 96.769 57.1831 97.2471 56.7187C97.7251 56.2542 98.0035 55.6218 98.0232 54.9556V48.7237C97.8555 48.2125 97.5308 47.7671 97.0954 47.4509C96.66 47.1347 96.136 46.9639 95.5979 46.9626ZM95.464 54.6038H92.8206C92.5171 54.6083 92.2227 54.7087 91.9797 54.8906C91.7366 55.0725 91.5574 55.3265 91.4675 55.6165C91.1916 56.6559 90.7828 57.6554 90.2515 58.5904C90.0984 58.8444 90.0353 59.1425 90.0721 59.4368C90.109 59.7311 90.2437 60.0044 90.4547 60.2128L92.2803 62.0385L88.7646 65.5542L87.0067 63.7285C86.7972 63.5194 86.524 63.3859 86.2303 63.3491C85.9365 63.3123 85.6389 63.3743 85.3843 63.5254C84.4549 64.0682 83.4538 64.4776 82.4104 64.7414C82.1101 64.8131 81.8444 64.9877 81.6594 65.2349C81.4745 65.482 81.3818 65.7861 81.3976 66.0944V68.738H76.4626V66.1689C76.4578 65.8652 76.357 65.5708 76.1748 65.3278C75.9927 65.0847 75.7383 64.9055 75.4482 64.8157C74.4089 64.5395 73.4094 64.1308 72.4743 63.5997C72.2157 63.463 71.9213 63.4093 71.6311 63.4457C71.3408 63.482 71.0688 63.6068 70.8519 63.803L69.0263 65.6286L67.6054 64.206L65.5105 62.1111L67.3361 60.2855C67.4475 60.1716 67.5382 60.0391 67.6038 59.8939C67.6841 59.7216 67.7257 59.5338 67.7257 59.3437C67.7257 59.1536 67.6841 58.9658 67.6038 58.7936C67.5849 58.7475 67.5628 58.7028 67.5377 58.6597C66.9951 57.7303 66.5858 56.7292 66.3217 55.6859C66.2503 55.3856 66.0761 55.1198 65.8293 54.9345C65.5824 54.7492 65.2785 54.6561 64.9702 54.6714H62.3268V49.7365H64.8959C65.1994 49.7317 65.4935 49.6312 65.7365 49.4494C65.9795 49.2675 66.1589 49.0135 66.249 48.7237C66.5249 47.6843 66.9336 46.6848 67.465 45.7499C67.5227 45.6543 67.5677 45.5515 67.5988 45.4442C67.6719 45.1995 67.6719 44.9388 67.5988 44.6941C67.5367 44.4805 67.4233 44.2853 67.2684 44.1257L65.4427 42.3001L67.6038 40.1391L68.9585 38.786L70.7842 40.6117C70.9936 40.8209 71.2668 40.9543 71.5606 40.9911C71.8543 41.0279 72.1519 40.9659 72.4066 40.8149C73.3359 40.2719 74.337 39.8626 75.3805 39.5989C75.6807 39.5271 75.9464 39.3525 76.1314 39.1053C76.3164 38.8582 76.409 38.5541 76.3932 38.2458V35.6123H81.3282V38.1813C81.3331 38.485 81.4338 38.7793 81.616 39.0224C81.7982 39.2654 82.0525 39.4446 82.3426 39.5344C83.382 39.8104 84.3815 40.2191 85.3165 40.7504C85.5751 40.8873 85.8695 40.9412 86.1598 40.9048C86.45 40.8685 86.7221 40.7437 86.9389 40.5472L88.7646 38.7215L92.2803 42.2373L90.4547 44.063C90.2457 44.2722 90.1122 44.5451 90.0754 44.8386C90.0386 45.132 90.1006 45.4294 90.2515 45.6837C90.7941 46.6132 91.2034 47.6143 91.4675 48.6577C91.5389 48.958 91.7131 49.2237 91.9599 49.409C92.2068 49.5943 92.5107 49.6873 92.819 49.672H95.4624L95.464 54.6038Z" fill="#C0CFE6"/>
<path d="M78.9028 44.2579C76.8056 44.2606 74.7951 45.0949 73.3121 46.5778C71.8292 48.0608 70.9949 50.0713 70.9923 52.1685C70.9949 54.2657 71.8292 56.2762 73.3121 57.7591C74.7951 59.2421 76.8056 60.0764 78.9028 60.0791C81 60.0764 83.0106 59.2421 84.4935 57.7591C85.9765 56.2762 86.8107 54.2657 86.8133 52.1685C86.8107 50.0713 85.9765 48.0608 84.4935 46.5778C83.0106 45.0949 81 44.2606 78.9028 44.2579ZM78.9028 57.3744C77.5408 57.3749 76.2344 56.8344 75.2708 55.8717C74.3073 54.9091 73.7655 53.6032 73.7646 52.2412C73.7628 50.8721 74.3016 49.5576 75.2638 48.5836C76.226 47.6097 77.5338 47.055 78.9028 47.0402C79.586 47.04 80.2624 47.1743 80.8936 47.4356C81.5248 47.6969 82.0984 48.08 82.5815 48.563C83.0647 49.046 83.4479 49.6193 83.7094 50.2504C83.9709 50.8815 84.1055 51.5581 84.1055 52.2412C84.0661 53.6021 83.5032 54.8953 82.534 55.8516C81.5648 56.8078 80.2641 57.3533 78.9028 57.3744Z" fill="#C0CFE6"/>
</svg>
