<svg width="93" height="100" viewBox="0 0 93 100" fill="none" xmlns="http://www.w3.org/2000/svg">
<path d="M93.0099 49.0299C93.0099 46.7407 91.6455 43.4512 81.1326 41.0837C80.8968 41.0306 80.6529 41.0245 80.4147 41.0657C80.1765 41.1069 79.9488 41.1946 79.7446 41.3239C79.5403 41.4531 79.3636 41.6213 79.2243 41.8188C79.085 42.0163 78.986 42.2394 78.933 42.4751C78.8799 42.7109 78.8738 42.9549 78.915 43.1931C78.9562 43.4312 79.0439 43.6589 79.1732 43.8631C79.3024 44.0674 79.4705 44.2442 79.6681 44.3835C79.8656 44.5227 80.0887 44.6217 80.3245 44.6748C90.5827 46.9854 89.4117 49.2646 88.4072 50.4043C87.8075 51.1314 87.111 51.7729 86.3371 52.3108C81.8695 55.6842 67.6261 58.6578 46.1023 58.6578C25.0352 58.6578 10.1729 55.1009 5.36104 51.7929L3.95676 50.3901C3.94253 50.3744 3.91978 50.3687 3.90413 50.3545C3.76547 50.1252 3.68854 49.864 3.68078 49.5962C3.68078 48.4252 6.45374 45.5967 16.9467 43.2776C17.1881 43.2308 17.4176 43.1361 17.6217 42.9992C17.8259 42.8622 18.0005 42.6858 18.1354 42.4802C18.2703 42.2747 18.3626 42.0443 18.4069 41.8025C18.4513 41.5607 18.4469 41.3125 18.3937 41.0724C18.3406 40.8324 18.2399 40.6054 18.0977 40.4049C17.9555 40.2044 17.7745 40.0345 17.5656 39.905C17.3566 39.7756 17.1238 39.6893 16.8809 39.6513C16.638 39.6133 16.39 39.6243 16.1515 39.6837C5.43366 42.054 0 45.3876 0 49.5962C0.0250069 50.8311 0.492561 52.0161 1.31753 52.9354C1.33318 52.9525 1.33887 52.9753 1.35452 52.9909L1.49677 53.1332C1.71202 53.3743 1.94052 53.6032 2.18115 53.819L36.372 88.0098V97.6761C36.3853 98.1554 36.585 98.6105 36.9287 98.9448C37.2724 99.279 37.7329 99.466 38.2123 99.466C38.6918 99.466 39.1522 99.279 39.4959 98.9448C39.8396 98.6105 40.0393 98.1554 40.0526 97.6761V86.486L12.0083 58.4416C21.6832 61.1975 35.3931 62.3315 46.0924 62.3315C56.8301 62.3315 70.5969 61.1932 80.2817 58.4117L52.2075 86.4845V97.6747C52.2075 98.163 52.4015 98.6313 52.7468 98.9765C53.092 99.3218 53.5603 99.5158 54.0486 99.5158C54.5369 99.5158 55.0051 99.3218 55.3504 98.9765C55.6957 98.6313 55.8897 98.163 55.8897 97.6747V88.0083L90.9142 52.9838C91.2888 52.6385 91.6364 52.2651 91.9542 51.8669C92.5844 51.0495 92.9524 50.0605 93.0099 49.0299Z" fill="white"/>
<path d="M32.2188 21.7168C30.4158 21.7165 28.6533 22.2509 27.154 23.2525C25.6547 24.254 24.486 25.6777 23.7959 27.3435C23.1058 29.0092 22.9251 30.8421 23.2768 32.6106C23.6285 34.379 24.4967 36.0034 25.7717 37.2784C27.0466 38.5533 28.671 39.4215 30.4395 39.7732C32.2079 40.1249 34.0409 39.9442 35.7066 39.2541C37.3724 38.564 38.7959 37.3953 39.7975 35.896C40.799 34.3967 41.3334 32.6342 41.3331 30.8311C41.3331 28.4139 40.373 26.0956 38.6637 24.3863C36.9544 22.6771 34.6361 21.7168 32.2188 21.7168ZM32.2188 34.7694C31.4402 34.7694 30.6792 34.5385 30.0318 34.106C29.3845 33.6735 28.8798 33.0587 28.5818 32.3394C28.2838 31.6202 28.2058 30.8287 28.3576 30.065C28.5094 29.3014 28.8841 28.5999 29.4346 28.0493C29.985 27.4987 30.6863 27.1236 31.4499 26.9715C32.2135 26.8195 33.005 26.8972 33.7244 27.195C34.4438 27.4927 35.0589 27.9971 35.4916 28.6443C35.9244 29.2916 36.1555 30.0526 36.1558 30.8311C36.155 31.8751 35.7399 32.8761 35.0018 33.6145C34.2637 34.3529 33.2628 34.7683 32.2188 34.7694Z" fill="#C1CFE6"/>
<path d="M79.7639 32.3706L81.8583 30.2762C81.9643 30.1705 82.0483 30.0449 82.1057 29.9066C82.1632 29.7683 82.1928 29.62 82.1928 29.4702C82.1928 29.3205 82.1632 29.1722 82.1057 29.0339C82.0483 28.8956 81.9643 28.7699 81.8583 28.6642L80.4596 27.2657C80.3539 27.1598 80.2284 27.0759 80.0902 27.0186C79.952 26.9613 79.8038 26.9318 79.6543 26.9318C79.5047 26.9318 79.3567 26.9613 79.2185 27.0186C79.0803 27.0759 78.9548 27.1598 78.8491 27.2657L76.7547 29.36C76.5855 29.5342 76.3643 29.6488 76.1244 29.6866C75.8845 29.7243 75.639 29.6831 75.4245 29.5692C74.7148 29.1706 73.9614 28.8555 73.1793 28.6301C72.9471 28.5574 72.7446 28.4116 72.602 28.2144C72.4595 28.0172 72.3845 27.7793 72.3882 27.536V25.1045C72.3882 24.8026 72.2682 24.513 72.0548 24.2996C71.8413 24.0861 71.5518 23.9662 71.2499 23.9662H69.2723C68.9704 23.9662 68.6809 24.0861 68.4674 24.2996C68.254 24.513 68.1341 24.8026 68.1341 25.1045V27.536C68.1379 27.7793 68.0629 28.0172 67.9203 28.2144C67.7778 28.4116 67.5752 28.5574 67.343 28.6301C66.5608 28.8544 65.8073 29.1691 65.0979 29.5677C64.8833 29.6814 64.6378 29.7225 64.398 29.6847C64.1581 29.647 63.9368 29.5326 63.7675 29.3586L61.9308 27.5217C61.8251 27.4157 61.6994 27.3316 61.5611 27.2742C61.4228 27.2168 61.2745 27.1872 61.1248 27.1872C60.975 27.1872 60.8268 27.2168 60.6885 27.2742C60.5502 27.3316 60.4245 27.4157 60.3188 27.5217L58.9201 28.9189C58.8141 29.0246 58.73 29.1503 58.6726 29.2886C58.6152 29.4269 58.5856 29.5752 58.5856 29.7249C58.5856 29.8747 58.6152 30.0229 58.6726 30.1612C58.73 30.2995 58.8141 30.4252 58.9201 30.5309L60.7569 32.3677C60.9317 32.5368 61.0469 32.7581 61.0848 32.9984C61.1228 33.2386 61.0817 33.4846 60.9676 33.6994C60.5688 34.4094 60.2536 35.1634 60.0285 35.946C59.9558 36.1782 59.8101 36.3807 59.6129 36.5233C59.4157 36.6658 59.1776 36.7408 58.9344 36.7371H56.5042C56.2024 36.7371 55.9129 36.857 55.6994 37.0704C55.486 37.2839 55.3661 37.5734 55.3661 37.8753V39.853C55.3661 40.1548 55.486 40.4443 55.6994 40.6578C55.9129 40.8712 56.2024 40.9912 56.5042 40.9912H58.95C59.1907 40.9884 59.426 41.0634 59.6207 41.2049C59.8155 41.3463 59.9594 41.5468 60.0313 41.7765C60.2404 42.5008 60.5266 43.2006 60.8849 43.8638C60.9954 44.0767 61.0346 44.3194 60.9964 44.5562C60.9583 44.7929 60.8449 45.0111 60.6731 45.1784L58.657 47.1959C58.5512 47.3016 58.4671 47.4272 58.4098 47.5653C58.3526 47.7035 58.3232 47.8516 58.3232 48.0012C58.3232 48.1508 58.3526 48.299 58.4098 48.4371C58.4671 48.5753 58.5512 48.7008 58.657 48.8065L60.0556 50.2051C60.1613 50.3109 60.2869 50.3949 60.425 50.4522C60.5632 50.5094 60.7112 50.5389 60.8608 50.5389C61.0104 50.5389 61.1586 50.5094 61.2967 50.4522C61.4349 50.3949 61.5604 50.3109 61.6662 50.2051L63.574 48.2971C63.7501 48.1152 63.9811 47.9961 64.2314 47.958C64.4817 47.92 64.7376 47.9651 64.9598 48.0866C65.6975 48.5115 66.4839 48.8459 67.3017 49.0825C67.5361 49.1448 67.744 49.2818 67.8934 49.4729C68.0429 49.6639 68.1258 49.8986 68.1298 50.1411V52.6196C68.1298 52.9215 68.2498 53.211 68.4633 53.4244C68.6767 53.6379 68.9662 53.7578 69.2681 53.7578H71.2458C71.5476 53.7578 71.8371 53.6379 72.0506 53.4244C72.2641 53.211 72.3839 52.9215 72.3839 52.6196V50.1837C72.3806 49.9431 72.4552 49.7078 72.5965 49.513C72.7377 49.3181 72.9381 49.1742 73.1679 49.1025C73.892 48.8931 74.5918 48.6069 75.2551 48.2488C75.4681 48.1385 75.7107 48.0996 75.9474 48.1378C76.1841 48.176 76.4023 48.2892 76.5697 48.4607L78.5872 50.4769C78.6929 50.5829 78.8186 50.6671 78.9569 50.7245C79.0953 50.7819 79.2435 50.8114 79.3932 50.8114C79.543 50.8114 79.6912 50.7819 79.8295 50.7245C79.9678 50.6671 80.0935 50.5829 80.1993 50.4769L81.5979 49.0783C81.7039 48.9725 81.788 48.8469 81.8454 48.7086C81.9028 48.5703 81.9324 48.422 81.9324 48.2722C81.9324 48.1225 81.9028 47.9742 81.8454 47.8359C81.788 47.6976 81.7039 47.572 81.5979 47.4663L79.6899 45.5597C79.5078 45.3834 79.3887 45.1522 79.3507 44.9016C79.3126 44.6511 79.3578 44.3949 79.4794 44.1725C79.9049 43.4356 80.2393 42.6496 80.4752 41.832C80.538 41.5976 80.6753 41.39 80.8665 41.2406C81.0578 41.0912 81.2926 41.0081 81.5352 41.004H84.0122C84.3141 41.004 84.6038 40.8841 84.8172 40.6706C85.0307 40.4572 85.1505 40.1677 85.1505 39.8658V37.8881C85.1505 37.5862 85.0307 37.2968 84.8172 37.0833C84.6038 36.8698 84.3141 36.7499 84.0122 36.7499H81.5823C81.339 36.7537 81.1009 36.6786 80.9037 36.536C80.7065 36.3935 80.5608 36.191 80.4881 35.9588C80.2625 35.1768 79.9473 34.4234 79.549 33.7137C79.4324 33.4972 79.3904 33.2485 79.4292 33.0057C79.468 32.763 79.5856 32.5399 79.7639 32.3706ZM70.2582 45.251C68.9953 45.251 67.7607 44.8765 66.7107 44.1749C65.6606 43.4732 64.8422 42.476 64.3589 41.3092C63.8756 40.1424 63.7492 38.8584 63.9955 37.6198C64.2419 36.3811 64.8501 35.2434 65.7431 34.3504C66.6361 33.4574 67.774 32.8492 69.0126 32.6028C70.2513 32.3564 71.5351 32.4829 72.7019 32.9662C73.8687 33.4495 74.866 34.2679 75.5676 35.318C76.2692 36.3681 76.6437 37.6027 76.6437 38.8656C76.6437 39.7043 76.4786 40.5347 76.1576 41.3095C75.8366 42.0843 75.3661 42.7883 74.773 43.3812C74.1799 43.9742 73.4757 44.4446 72.7009 44.7654C71.926 45.0862 71.0969 45.2512 70.2582 45.251Z" fill="#C1CFE6"/>
<path d="M70.7904 36.7371H69.8343C68.9228 36.7371 68.1839 37.476 68.1839 38.3875V39.3436C68.1839 40.2551 68.9228 40.994 69.8343 40.994H70.7904C71.7019 40.994 72.4408 40.2551 72.4408 39.3436V38.3875C72.4408 37.476 71.7019 36.7371 70.7904 36.7371Z" fill="#C1CFE6"/>
<path d="M16.7897 16.8886L17.7397 19.2704L17.8939 19.6693L17.6388 20.0166C16.6365 21.3858 15.8325 22.8895 15.2506 24.4833L15.1011 24.8896L14.6734 24.9788L12.1657 25.4924C11.1816 25.6908 10.2994 26.231 9.67535 27.0174C9.05129 27.8038 8.72561 28.7857 8.75596 29.7891L8.84988 33.202C8.87583 34.2067 9.25672 35.1698 9.925 35.9205C10.5933 36.6711 11.5058 37.1609 12.5008 37.303L15.0375 37.6771L15.4642 37.7395L15.6379 38.1297C16.3191 39.6971 17.2196 41.1597 18.3125 42.4737L18.5888 42.8072L18.4506 43.2178L17.6262 45.6637C17.307 46.6154 17.3345 47.6493 17.7039 48.5826C18.0734 49.516 18.7609 50.2887 19.6449 50.7641L22.6394 52.3727C23.5211 52.8516 24.5436 53.0034 25.5264 52.8013C26.5091 52.5992 27.3888 52.0563 28.0099 51.2684L29.6082 49.2586L29.8763 48.9227L30.3024 48.9698C32.0025 49.1589 33.7206 49.1108 35.4075 48.8267L35.8325 48.7558L36.1176 49.0776L37.8169 50.9934C37.9054 51.0942 37.9974 51.1889 38.0986 51.2762C38.7774 51.9155 39.6476 52.3137 40.575 52.4096C41.5025 52.5054 42.4358 52.2936 43.2309 51.8066L46.1436 50.0156C47.0118 49.4963 47.6662 48.6842 47.9891 47.7255C48.312 46.7667 48.2822 45.7242 47.9052 44.7855L46.9552 42.4036L46.797 42.0065L47.0522 41.6592C48.0564 40.2908 48.8628 38.7876 49.4473 37.194L49.5968 36.7878L50.0245 36.6986L52.5342 36.1825C53.519 35.9859 54.4021 35.4463 55.0266 34.6598C55.651 33.8733 55.9763 32.8908 55.9445 31.8871L55.8483 28.469C55.8199 27.4662 55.4387 26.5056 54.7718 25.7562C54.1049 25.0068 53.195 24.5167 52.2023 24.3721L49.6656 23.998L49.2383 23.9342L49.0646 23.5441C48.3828 21.9775 47.4825 20.5154 46.3906 19.2014L46.113 18.8684L46.2506 18.4565L47.0682 16.0199C47.3866 15.0682 47.3586 14.0346 46.9893 13.1015C46.6199 12.1683 45.9329 11.3956 45.0495 10.9195L42.0453 9.29965C41.1642 8.81847 40.1411 8.66523 39.1577 8.86719C38.1743 9.06914 37.2943 9.61319 36.6742 10.4027L35.0862 12.411L34.818 12.7501L34.39 12.7023C32.6869 12.5119 30.9656 12.5604 29.276 12.8463L28.8534 12.9191L28.5664 12.5966L26.8685 10.6802C26.7799 10.5794 26.6879 10.4848 26.5867 10.3974C25.9089 9.75887 25.04 9.3607 24.1138 9.2641C23.1876 9.16751 22.2553 9.37786 21.4603 9.86279L18.5476 11.6538C17.6788 12.1737 17.0243 12.9868 16.702 13.9466C16.3797 14.9063 16.4108 15.9497 16.7897 16.8886ZM19.7328 13.6504L22.6876 11.8594C23.0486 11.6389 23.4721 11.5432 23.8928 11.587C24.3136 11.6308 24.7082 11.8117 25.0161 12.1019C25.057 12.1413 25.0966 12.1813 25.1348 12.2251L27.5709 14.9768C27.5976 15.0077 27.6259 15.0373 27.6555 15.0653C27.7951 15.1976 27.9653 15.2931 28.1509 15.3435C28.3365 15.3938 28.5317 15.3974 28.719 15.3538C30.8181 14.8634 32.9947 14.8021 35.1181 15.1736C35.3255 15.2099 35.5389 15.1894 35.7356 15.1141C35.9323 15.0389 36.1049 14.9118 36.2352 14.7463L38.5143 11.8615C38.7844 11.5122 39.166 11.2661 39.5956 11.1641C40.0252 11.0621 40.4767 11.1105 40.8749 11.3012L43.917 12.9431C44.3184 13.1585 44.6303 13.5094 44.7974 13.9332C44.9644 14.357 44.9757 14.8263 44.8293 15.2576L43.6642 18.7512C43.5942 18.9518 43.5804 19.1677 43.6241 19.3756C43.6678 19.5835 43.7674 19.7756 43.9122 19.931C45.3913 21.4909 46.5345 23.3377 47.2711 25.3572C47.3434 25.5544 47.4676 25.7285 47.6306 25.8611C47.7936 25.9937 47.9893 26.0798 48.1972 26.1104L51.8419 26.6456C52.2917 26.712 52.7037 26.9351 53.005 27.2757C53.3063 27.6162 53.4777 28.0522 53.4888 28.5068L53.5928 31.9775C53.6084 32.4321 53.4622 32.8774 53.1803 33.2343C52.8984 33.5912 52.4991 33.8366 52.0533 33.9268L48.4433 34.6664C48.2363 34.708 48.0444 34.8049 47.8881 34.947C47.7318 35.089 47.617 35.2708 47.5558 35.4729C46.9331 37.5318 45.8947 39.441 44.5048 41.0826C44.3699 41.2432 44.2809 41.4372 44.2472 41.6442C44.2134 41.8513 44.2363 42.0635 44.3132 42.2586L45.6848 45.6854C45.8522 46.0988 45.8711 46.5574 45.7382 46.9832C45.6052 47.4089 45.3288 47.7754 44.9559 48.0201L42.0216 49.7943C41.6605 50.015 41.2367 50.1107 40.8158 50.0666C40.3948 50.0226 40.0001 49.8412 39.6925 49.5505C39.6521 49.5124 39.6119 49.471 39.5724 49.4279L37.0574 46.6879C37.0234 46.6501 36.9997 46.6248 36.9734 46.6007C36.8339 46.4683 36.6637 46.3727 36.4781 46.3223C36.2925 46.272 36.0973 46.2685 35.91 46.3122C34.869 46.5457 33.8074 46.675 32.7408 46.6981C31.6806 46.7347 30.6193 46.6654 29.5727 46.4913C29.3646 46.4544 29.1504 46.4746 28.9528 46.5497C28.7552 46.6248 28.5817 46.752 28.4506 46.9178L26.173 49.8097C25.8984 50.168 25.5064 50.4183 25.0657 50.5165C24.625 50.6147 24.1639 50.5546 23.7631 50.3468L20.7378 48.7145C20.5997 48.6367 20.4715 48.5426 20.3559 48.4342C20.0888 48.1803 19.8997 47.8555 19.8108 47.4979C19.7219 47.1402 19.737 46.7646 19.8542 46.4153L21.02 42.9198C21.0929 42.7151 21.107 42.4939 21.0606 42.2816C21.0143 42.0692 20.9093 41.8741 20.7577 41.7183C19.274 40.1565 18.1271 38.3064 17.3883 36.2828C17.3164 36.0853 17.1923 35.911 17.0293 35.7783C16.8662 35.6457 16.6703 35.5597 16.4623 35.5296L12.8466 35.0281C12.3955 34.9634 11.9819 34.7408 11.6794 34.3998C11.377 34.0589 11.2052 33.6217 11.1947 33.1661L11.086 29.699C11.0707 29.2445 11.2168 28.7992 11.4985 28.4421C11.7802 28.0851 12.1793 27.8393 12.6249 27.7484L16.2349 27.0089C16.4421 26.9674 16.6342 26.8702 16.7904 26.7279C16.9466 26.5856 17.0612 26.4035 17.1218 26.201C17.7436 24.1411 18.7824 22.231 20.1736 20.5895C20.3084 20.4288 20.3973 20.2347 20.431 20.0278C20.4647 19.8208 20.442 19.6085 20.3652 19.4134L19.0036 15.9884C18.8357 15.5746 18.8166 15.1153 18.9496 14.6889C19.0825 14.2625 19.3593 13.8955 19.7328 13.6504Z" fill="#C1CFE6" stroke="#C0CFE5" stroke-width="0.711761"/>
</svg>
