<svg width="100" height="100" viewBox="0 0 100 100" fill="none" xmlns="http://www.w3.org/2000/svg">
<g clip-path="url(#clip0_500_4986)">
<path d="M69.052 12.2222C69.052 3.63269 76.5474 0 84.4447 0C92.4005 0 100.011 3.2858 99.8961 12.1073C99.8961 20.2932 92.9778 21.4475 89.577 23.4072C86.9251 24.6181 86.1819 26.1176 86.1819 29.9804L79.7823 29.9219C79.7823 22.0227 82.7228 19.9481 86.8157 18.2279C89.9279 16.7869 93.272 16.0947 93.272 12.0583C93.272 6.81291 88.4283 5.65846 84.3353 5.65846C80.2424 5.65846 75.3988 7.67665 75.3422 12.2298L69.052 12.2222ZM87.0402 36.9554C87.0174 38.0106 86.5821 39.0149 85.8277 39.7531C85.0734 40.4913 84.0601 40.9045 83.0047 40.9045C81.9493 40.9045 80.9358 40.4913 80.1815 39.7531C79.4272 39.0149 78.9921 38.0106 78.9693 36.9554C78.9921 35.9003 79.4272 34.8961 80.1815 34.158C80.9358 33.4198 81.9493 33.0063 83.0047 33.0063C84.0601 33.0063 85.0734 33.4198 85.8277 34.158C86.5821 34.8961 87.0174 35.9003 87.0402 36.9554Z" fill="#C0CFE6"/>
<path d="M60.4116 68.9765C57.3561 68.5484 54.6268 68.0898 54.6268 65.7227C54.5947 63.1594 57.5522 62.107 60.2852 62.107C61.3768 62.0486 62.4665 62.2541 63.4619 62.7058C64.4573 63.1576 65.3292 63.8423 66.004 64.7023L68.9615 63.1256C68.272 61.9327 67.287 60.9373 66.1014 60.2353C64.9158 59.5334 63.5696 59.1485 62.1921 59.1175V56.16H58.6763V59.1175C54.904 59.5117 50.9205 61.4508 50.9544 65.755C50.9884 70.9155 55.4813 71.7359 60.0571 72.3282C63.3107 72.7884 66.3001 73.5428 66.3001 76.042C66.3001 79.0315 63.1125 79.8539 60.189 79.8539C57.4616 79.8539 54.2401 78.6372 53.2216 76.3701L50.1 78.0129C50.9435 79.5537 52.1831 80.8413 53.6908 81.7426C55.1986 82.6439 56.9198 83.1261 58.6763 83.1395V86.2949H62.1601V83.0094C66.1682 82.7453 70.1139 80.4782 70.1139 76.042C70.112 70.7834 65.1157 69.6329 60.4116 68.9765Z" fill="white"/>
<path d="M88.7867 69.3292C88.3354 62.4865 85.4505 56.0311 80.6536 51.1305C75.8568 46.2299 69.4648 43.2075 62.6334 42.6099C61.7997 42.5382 60.9565 42.4929 60.104 42.4929H59.9513C59.1847 42.4793 58.4178 42.5153 57.6558 42.6005L57.4672 42.6157V8.53667C57.4734 8.4853 57.4734 8.43332 57.4672 8.38195C57.4743 8.30919 57.4743 8.23598 57.4672 8.16322C56.5638 2.38028 35.3842 1.91626 28.7884 1.91626C22.1925 1.91626 1.02595 2.38028 0.118713 8.16322V76.1872C0.106262 76.329 0.106262 76.4718 0.118713 76.6136C1.08631 82.3569 22.2019 82.8207 28.7884 82.8207C30.0728 82.8207 31.7551 82.8207 33.7563 82.7321C36.325 88.6397 40.804 93.5133 46.4743 96.5706C52.1445 99.6279 58.6772 100.692 65.0245 99.5916C71.3718 98.4914 77.1656 95.2908 81.4761 90.5035C85.7865 85.7161 88.3638 79.6195 88.7943 73.1919C88.8377 72.545 88.8678 71.8943 88.8678 71.236C88.8678 70.5778 88.8301 69.9629 88.7867 69.3292ZM28.7524 5.76593C41.8782 5.76593 50.0887 7.36536 52.8368 8.52723C50.0868 9.6891 41.8782 11.2885 28.7524 11.2885C15.6267 11.2885 7.439 9.68721 4.68144 8.52723C7.43145 7.37668 15.6399 5.76201 28.7543 5.76201L28.7524 5.76593ZM3.90806 12.2956C10.5284 14.8778 23.7843 15.1608 28.7524 15.1608C33.7206 15.1608 46.9898 14.9023 53.612 12.2956L53.5987 17.7825C52.0369 18.9312 43.506 20.9569 28.7393 20.9569C13.9726 20.9569 5.46795 18.9953 3.90621 17.7825L3.90806 12.2956ZM3.90806 21.9642C10.5284 24.5709 23.7843 24.8291 28.7524 24.8291C33.7206 24.8291 46.9898 24.5709 53.612 21.9642V27.4491C52.0503 28.5977 43.5059 30.6122 28.7524 30.6122C13.999 30.6122 5.52072 28.5865 3.90806 27.4378V21.9642ZM3.90806 31.6308C10.5284 34.2242 23.7843 34.4825 28.7524 34.4825V34.4957C33.7338 34.4957 46.9898 34.2242 53.612 31.6308V37.0647C52.0503 38.2134 43.5191 40.2391 28.7524 40.2391C13.9858 40.2391 5.4679 38.2643 3.90806 37.0647V31.6308ZM3.90806 41.2973C10.5284 43.8775 23.7843 44.1622 28.7524 44.1622C33.7206 44.1622 46.9896 43.8907 53.5987 41.2973V43.2325C53.5119 43.2532 53.4253 43.2796 53.3385 43.3022C52.9474 43.3965 52.5594 43.499 52.1746 43.6096L51.8276 43.7077C50.7719 44.0249 49.7353 44.4027 48.723 44.8393L48.6174 44.8865C48.1659 45.0827 47.7214 45.2909 47.2838 45.511L46.9407 45.6882C46.5836 45.8718 46.2314 46.0603 45.8844 46.254C45.7448 46.3332 45.6053 46.4125 45.4676 46.4936C45.1394 46.6823 44.8169 46.8896 44.4962 47.0971C44.3604 47.1858 44.2226 47.2688 44.0887 47.3594C43.68 47.6335 43.2785 47.9175 42.8836 48.2117C42.6667 48.3739 42.4573 48.5458 42.2461 48.7136C42.0575 48.8589 41.88 49.0003 41.7027 49.1493C41.6122 49.2247 41.5141 49.2944 41.4273 49.3698C37.9172 49.7188 33.6828 49.9507 28.7524 49.9507C14.0009 49.9507 5.52072 47.9251 3.90806 46.7745V41.2973ZM28.7524 78.9598C14.0009 78.9598 5.52072 76.9341 3.90806 75.7854V70.3005C10.5284 72.8808 23.7843 73.1657 28.7524 73.1657H31.3931C31.5202 75.1176 31.8489 77.0511 32.3739 78.9354C31.2196 78.9316 30.018 78.9579 28.7543 78.9579L28.7524 78.9598ZM32.3231 63.8236C32.274 64.0122 32.2249 64.2007 32.1796 64.3893C32.1042 64.6948 32.0324 65.0042 31.9664 65.3116C31.9419 65.4286 31.9193 65.5456 31.8966 65.6625C31.8193 66.0548 31.7478 66.449 31.6855 66.8432C31.6855 66.8621 31.6855 66.8828 31.6855 66.9035C31.561 67.707 31.4628 68.5163 31.4081 69.3273H28.7676C14.016 69.3273 5.53591 67.3016 3.92325 66.1529V60.6283C10.5436 63.2104 23.7995 63.4934 28.7676 63.4934H32.4211C32.3759 63.6028 32.3532 63.7121 32.3231 63.8215V63.8236ZM34.4901 58.1877C34.3027 58.5549 34.1229 58.9271 33.9506 59.3044C33.911 59.3911 33.8659 59.4741 33.8263 59.5609C32.2269 59.5609 30.5348 59.6513 28.7543 59.6513C14.0027 59.6513 5.52256 57.6256 3.9099 56.477V50.9656C10.5303 53.5591 23.7862 53.8439 28.7543 53.8439V53.857C30.6895 53.857 33.9168 53.857 37.4025 53.6118L37.3684 53.659C37.1169 53.9897 36.8654 54.3268 36.6139 54.67C36.595 54.6983 36.5763 54.7267 36.5575 54.755C35.8534 55.7563 35.214 56.8013 34.643 57.884C34.5939 57.9802 34.5429 58.0821 34.4901 58.1877ZM84.8222 73.0223C84.6877 74.9727 84.3236 76.9005 83.7375 78.7657C83.3154 80.0729 82.7843 81.3423 82.1495 82.5605C80.0679 86.6295 76.9032 90.0446 73.0043 92.4294C69.1054 94.8143 64.6235 96.0763 60.0531 96.0763C55.4826 96.0763 51.001 94.8143 47.1021 92.4294C43.2032 90.0446 40.0385 86.6295 37.9569 82.5605C37.3267 81.3418 36.7999 80.0725 36.382 78.7657C35.7959 76.9005 35.4318 74.9727 35.2973 73.0223C35.2973 72.4281 35.2069 71.8339 35.2069 71.2284C35.1919 70.5296 35.2266 69.8308 35.3107 69.1369C35.4738 67.1499 35.8811 65.1904 36.5234 63.303C36.9774 61.9234 37.5563 60.5882 38.253 59.3138C39.8741 56.3781 42.0674 53.7972 44.7032 51.7238C47.339 49.6504 50.3638 48.1266 53.5987 47.2424C54.8264 46.9091 56.0772 46.6675 57.3408 46.5199H57.4691C59.1846 46.3288 60.9161 46.3288 62.6316 46.5199H62.7598C64.0234 46.6675 65.2742 46.909 66.502 47.2424C69.7393 48.125 72.7666 49.6481 75.4048 51.7215C78.0429 53.795 80.2382 56.3768 81.8608 59.3138C82.5576 60.5881 83.1366 61.9234 83.5904 63.303C84.2324 65.1905 84.6398 67.1499 84.8033 69.1369C84.8033 69.8348 84.9069 70.5173 84.9069 71.2284C84.9266 71.827 84.8983 72.4282 84.8222 73.0223Z" fill="white"/>
</g>
<defs>
<clipPath id="clip0_500_4986">
<rect width="100" height="100" fill="white"/>
</clipPath>
</defs>
</svg>
