<svg width="40" height="40" viewBox="0 0 40 40" fill="none" xmlns="http://www.w3.org/2000/svg">
  <rect x="12.6" y="4.6" width="16" height="21" rx="1.6" fill="white" stroke="#9AA1A8" stroke-width="1.8"/>
  <path d="M8.6 9.6h14.4a1.6 1.6 0 0 1 1.6 1.6v18.4a1.6 1.6 0 0 1-1.6 1.6H8.6a1.6 1.6 0 0 1-1.6-1.6V11.2a1.6 1.6 0 0 1 1.6-1.6Z" fill="white" stroke="#9AA1A8" stroke-width="1.8"/>
  <path d="M23 9.6v5.2a1.4 1.4 0 0 0 1.4 1.4h5.2" fill="none" stroke="#9AA1A8" stroke-width="1.6" stroke-linejoin="round"/>
  <path d="M15.8 27.4c-1.6-1.6-2.5-3.7-2.5-5.9a4.9 4.9 0 0 1 9.8 0c0 .9-.2 1.7-.6 2.4" stroke="#0063D6" stroke-width="1.5" stroke-linecap="round"/>
  <path d="M15.8 29.8a11.7 11.7 0 0 1-2-6.7M18.2 30.4a9.3 9.3 0 0 1-1.4-5.5 2.4 2.4 0 1 1 4.8 0c0 .7-.1 1.3-.4 1.9" stroke="#0063D6" stroke-width="1.5" stroke-linecap="round"/>
</svg>
